<svg width="520" height="517" viewBox="0 0 520 517" fill="none" xmlns="http://www.w3.org/2000/svg">
<path d="M153.926 139.777L160.813 133.627L163.17 136.268L153.084 145.274L137.727 128.075L140.926 125.218L153.926 139.777Z" fill="white"/>
<path d="M160.354 117.724C161.343 117.006 162.354 116.516 163.385 116.254C164.425 115.986 165.441 115.938 166.433 116.111C167.426 116.285 168.383 116.681 169.304 117.299C170.226 117.918 171.064 118.748 171.819 119.789C172.581 120.839 173.112 121.898 173.414 122.966C173.716 124.034 173.798 125.071 173.661 126.077C173.523 127.082 173.166 128.038 172.588 128.943C172.018 129.842 171.239 130.65 170.249 131.368C169.26 132.086 168.245 132.579 167.205 132.847C166.165 133.115 165.142 133.162 164.134 132.986C163.136 132.804 162.171 132.407 161.241 131.794C160.32 131.176 159.478 130.342 158.717 129.292C157.962 128.25 157.433 127.196 157.131 126.128C156.838 125.053 156.763 124.018 156.907 123.021C157.059 122.017 157.424 121.063 158.002 120.158C158.58 119.253 159.364 118.441 160.354 117.724ZM168.47 128.915C169.572 128.116 170.117 127.157 170.105 126.036C170.102 124.909 169.582 123.631 168.546 122.202C167.51 120.774 166.454 119.879 165.377 119.517C164.309 119.149 163.225 119.364 162.123 120.163C161.004 120.975 160.453 121.953 160.468 123.097C160.478 124.232 160.998 125.51 162.027 126.93C163.057 128.35 164.11 129.241 165.187 129.603C166.257 129.956 167.352 129.727 168.47 128.915Z" fill="white"/>
<path d="M189.938 118.75L188.404 119.633C188.081 119.818 187.801 119.918 187.564 119.932C187.321 119.936 187.069 119.818 186.807 119.576L185.923 118.741C185.749 119.271 185.558 119.76 185.351 120.211C185.148 120.646 184.91 121.053 184.637 121.431C184.363 121.809 184.043 122.158 183.676 122.48C183.309 122.801 182.872 123.108 182.366 123.399C181.767 123.744 181.169 123.983 180.572 124.118C179.969 124.244 179.391 124.251 178.837 124.141C178.292 124.025 177.781 123.786 177.302 123.423C176.824 123.06 176.402 122.561 176.036 121.925C175.729 121.391 175.565 120.786 175.545 120.111C175.528 119.421 175.728 118.681 176.144 117.89C176.554 117.09 177.224 116.239 178.152 115.337C179.081 114.435 180.341 113.502 181.932 112.538L181.455 111.708C180.91 110.759 180.304 110.175 179.639 109.957C178.978 109.724 178.265 109.828 177.5 110.268C176.947 110.586 176.523 110.915 176.229 111.256C175.934 111.597 175.696 111.93 175.515 112.255C175.338 112.565 175.172 112.851 175.015 113.113C174.859 113.374 174.643 113.584 174.366 113.743C174.136 113.876 173.903 113.93 173.669 113.905C173.434 113.881 173.215 113.81 173.013 113.694L171.763 112.959C172.536 110.528 174.074 108.65 176.378 107.326C177.207 106.849 178.024 106.563 178.828 106.468C179.636 106.359 180.406 106.419 181.139 106.648C181.866 106.868 182.538 107.247 183.156 107.788C183.782 108.323 184.326 108.991 184.787 109.793L189.938 118.75ZM182.079 120.437C182.429 120.236 182.733 120.018 182.991 119.784C183.248 119.55 183.469 119.294 183.653 119.017C183.846 118.734 184.009 118.432 184.143 118.109C184.281 117.773 184.4 117.404 184.5 117.003L183.125 114.611C182.156 115.23 181.372 115.797 180.774 116.313C180.179 116.814 179.735 117.278 179.441 117.705C179.146 118.132 178.986 118.524 178.959 118.883C178.942 119.237 179.02 119.565 179.195 119.869C179.54 120.468 179.961 120.796 180.46 120.853C180.968 120.904 181.507 120.766 182.079 120.437Z" fill="white"/>
<path d="M192.909 117.22L186.291 102.258L188.493 101.284C188.959 101.078 189.362 101.161 189.702 101.534L190.472 102.605C190.636 102.161 190.827 101.739 191.046 101.34C191.274 100.937 191.532 100.561 191.82 100.213C192.118 99.8608 192.459 99.5414 192.844 99.2549C193.228 98.9685 193.673 98.7134 194.179 98.4898C194.996 98.1286 195.782 97.9492 196.539 97.9516C197.291 97.9443 197.988 98.1009 198.63 98.4215C199.277 98.7281 199.862 99.1841 200.386 99.7895C200.915 100.381 201.364 101.095 201.734 101.931L205.946 111.453L202.344 113.047L198.132 103.524C197.728 102.61 197.202 102 196.555 101.693C195.913 101.373 195.17 101.399 194.324 101.774C193.702 102.049 193.181 102.448 192.761 102.971C192.341 103.493 191.996 104.105 191.725 104.806L196.511 115.627L192.909 117.22Z" fill="white"/>
<path d="M214.065 91.564L218.885 107.199L215.121 108.359L210.301 92.7242L214.065 91.564ZM213.225 86.8339C213.325 87.159 213.353 87.4841 213.308 87.8093C213.264 88.1344 213.163 88.4381 213.005 88.7204C212.857 88.9995 212.657 89.2505 212.403 89.4733C212.146 89.6861 211.85 89.8441 211.514 89.9474C211.189 90.0476 210.861 90.0822 210.529 90.0511C210.203 90.0067 209.901 89.9107 209.622 89.7632C209.343 89.6156 209.094 89.4199 208.874 89.1762C208.664 88.9293 208.509 88.6433 208.409 88.3182C208.306 87.983 208.27 87.6493 208.301 87.3171C208.342 86.9818 208.436 86.6746 208.584 86.3955C208.732 86.1164 208.929 85.872 209.176 85.6624C209.43 85.4395 209.719 85.278 210.044 85.1778C210.379 85.0745 210.715 85.0434 211.05 85.0847C211.382 85.1158 211.688 85.2051 211.967 85.3527C212.256 85.4971 212.512 85.6963 212.735 85.9502C212.958 86.2041 213.121 86.4987 213.225 86.8339Z" fill="white"/>
<path d="M222.746 105.971L219.198 89.9993L221.549 89.4773C222.047 89.3667 222.426 89.5275 222.685 89.96L223.23 91.1621C223.478 90.7586 223.748 90.3827 224.041 90.0345C224.345 89.684 224.671 89.3664 225.022 89.0816C225.383 88.7946 225.78 88.5484 226.214 88.3432C226.647 88.1381 227.134 87.9755 227.674 87.8557C228.545 87.6621 229.352 87.6408 230.093 87.792C230.832 87.9327 231.485 88.2234 232.051 88.6639C232.625 89.0918 233.109 89.654 233.504 90.3505C233.906 91.0343 234.206 91.8224 234.405 92.7149L236.662 102.88L232.817 103.734L230.56 93.5689C230.343 92.5933 229.948 91.8917 229.373 91.4638C228.807 91.0233 228.073 90.9033 227.17 91.1038C226.506 91.2513 225.916 91.5401 225.402 91.9701C224.888 92.4001 224.429 92.9322 224.025 93.5663L226.591 105.117L222.746 105.971Z" fill="white"/>
<path d="M257.942 79.2379C257.982 79.7999 257.835 80.2688 257.499 80.6447C257.175 81.0198 256.599 81.2372 255.772 81.2968L249.442 81.7529L248.961 86.6158C249.985 86.3288 250.926 86.1544 251.785 86.0925C252.994 86.0054 254.067 86.1092 255.005 86.404C255.953 86.6981 256.763 87.1406 257.435 87.7317C258.106 88.3229 258.632 89.0364 259.012 89.8723C259.391 90.6976 259.616 91.6034 259.687 92.5895C259.775 93.8088 259.638 94.9378 259.276 95.9764C258.924 97.0143 258.393 97.9213 257.681 98.6973C256.969 99.4627 256.102 100.079 255.081 100.547C254.07 101.015 252.95 101.292 251.72 101.381C250.999 101.433 250.309 101.408 249.652 101.306C248.994 101.204 248.371 101.052 247.78 100.85C247.2 100.636 246.655 100.387 246.144 100.104C245.643 99.81 245.189 99.4963 244.781 99.1633L245.87 97.4062C246.098 97.0273 246.424 96.8226 246.848 96.7921C247.114 96.773 247.385 96.8387 247.662 96.9892C247.95 97.139 248.281 97.3017 248.656 97.4771C249.031 97.6526 249.464 97.808 249.953 97.9433C250.442 98.0785 251.026 98.1217 251.705 98.0728C252.426 98.0208 253.054 97.8584 253.588 97.5854C254.123 97.3124 254.556 96.9561 254.886 96.5166C255.227 96.0657 255.467 95.5475 255.606 94.9619C255.754 94.365 255.804 93.7273 255.755 93.0487C255.665 91.7975 255.229 90.8483 254.447 90.2013C253.675 89.5428 252.584 89.2644 251.173 89.366C250.06 89.4463 248.956 89.7283 247.861 90.2122L245.361 89.6889L246.465 78.3863L257.821 77.5679L257.942 79.2379Z" fill="white"/>
<path d="M269.604 100.297L271.26 84.0202L273.655 84.2639C274.163 84.3155 274.472 84.5873 274.582 85.0794L274.713 86.3109C275.031 86.0227 275.357 85.7619 275.69 85.5287C276.035 85.2966 276.391 85.1031 276.759 84.9482C277.138 84.7945 277.534 84.6851 277.947 84.6202C278.371 84.5459 278.826 84.5334 279.313 84.5829C280.339 84.6872 281.151 85.053 281.75 85.6803C282.36 86.298 282.782 87.0836 283.017 88.0371C283.325 87.5235 283.689 87.0957 284.109 86.7537C284.529 86.4011 284.98 86.1263 285.459 85.9294C285.939 85.7324 286.438 85.6015 286.958 85.5368C287.488 85.4732 288.012 85.4677 288.53 85.5205C289.429 85.6119 290.213 85.8306 290.884 86.1766C291.554 86.5226 292.1 86.9842 292.522 87.5614C292.944 88.1386 293.238 88.8203 293.404 89.6065C293.58 90.3938 293.618 91.2793 293.518 92.2629L292.464 102.622L288.546 102.224L289.6 91.8643C289.705 90.8278 289.557 90.0273 289.155 89.4629C288.754 88.8878 288.114 88.5556 287.237 88.4663C286.835 88.4254 286.452 88.456 286.089 88.558C285.737 88.661 285.415 88.8313 285.124 89.0688C284.844 89.2968 284.61 89.599 284.422 89.9752C284.235 90.3515 284.115 90.7934 284.063 91.3011L283.009 101.66L279.075 101.26L280.129 90.9009C280.24 89.8116 280.098 88.9958 279.705 88.4535C279.322 87.9123 278.702 87.5981 277.845 87.511C277.284 87.454 276.741 87.543 276.215 87.778C275.701 88.0035 275.207 88.3379 274.735 88.7814L273.523 100.695L269.604 100.297Z" fill="white"/>
<path d="M303.17 88.5022L299.78 104.508L295.927 103.692L299.317 87.6862L303.17 88.5022ZM304.735 83.9601C304.665 84.2929 304.531 84.5906 304.334 84.8531C304.137 85.1157 303.901 85.332 303.626 85.5019C303.362 85.674 303.064 85.7958 302.734 85.8671C302.406 85.928 302.07 85.9221 301.727 85.8494C301.394 85.779 301.09 85.6494 300.815 85.4607C300.553 85.2638 300.335 85.0331 300.163 84.7684C299.991 84.5038 299.868 84.2115 299.795 83.8917C299.731 83.574 299.735 83.2488 299.806 82.916C299.878 82.5728 300.009 82.2637 300.198 81.9885C300.397 81.7155 300.629 81.493 300.893 81.3208C301.158 81.1487 301.449 81.031 301.767 80.9679C302.097 80.8966 302.428 80.8962 302.761 80.9667C303.104 81.0393 303.413 81.1752 303.685 81.3743C303.961 81.563 304.184 81.7896 304.356 82.0543C304.539 82.3212 304.666 82.6197 304.737 82.9499C304.809 83.2802 304.808 83.6169 304.735 83.9601Z" fill="white"/>
<path d="M303.734 105.303L308.413 89.626L310.72 90.3146C311.209 90.4605 311.462 90.7855 311.478 91.2895L311.368 92.6047C311.781 92.373 312.2 92.1764 312.626 92.0149C313.061 91.8564 313.501 91.7382 313.946 91.6602C314.401 91.5852 314.868 91.5637 315.347 91.5956C315.825 91.6275 316.33 91.7225 316.859 91.8806C317.715 92.136 318.43 92.5102 319.004 93.0032C319.581 93.4861 320.009 94.0577 320.289 94.7181C320.582 95.3714 320.731 96.0982 320.737 96.8986C320.755 97.6917 320.634 98.5264 320.372 99.4024L317.394 109.38L313.62 108.254L316.598 98.276C316.884 97.3184 316.88 96.513 316.587 95.8597C316.307 95.1993 315.724 94.7368 314.838 94.4723C314.186 94.2777 313.53 94.243 312.872 94.3682C312.213 94.4933 311.553 94.7346 310.892 95.0919L307.508 106.43L303.734 105.303Z" fill="white"/>
<path d="M330.203 96.8548L326.153 106.43C325.764 107.351 325.672 108.154 325.877 108.841C326.097 109.523 326.633 110.044 327.484 110.404C328.111 110.669 328.756 110.781 329.421 110.739C330.089 110.687 330.772 110.519 331.468 110.237L336.078 99.3397L339.705 100.874L333.331 115.942L331.114 115.004C330.644 114.805 330.429 114.455 330.468 113.952L330.728 112.642C330.282 112.823 329.837 112.975 329.392 113.098C328.951 113.212 328.501 113.281 328.04 113.306C327.594 113.325 327.13 113.29 326.648 113.201C326.171 113.127 325.683 112.984 325.184 112.773C324.362 112.425 323.69 111.979 323.17 111.436C322.663 110.887 322.302 110.267 322.087 109.575C321.871 108.884 321.798 108.143 321.867 107.353C321.95 106.557 322.169 105.738 322.525 104.896L326.576 95.3204L330.203 96.8548Z" fill="white"/>
<path d="M341.264 120.443C340.018 119.775 339.246 118.908 338.948 117.844C338.656 116.77 338.844 115.61 339.512 114.364L343.831 106.312L342.369 105.529C342.182 105.428 342.051 105.279 341.975 105.082C341.91 104.89 341.942 104.672 342.073 104.429L342.811 103.051L345.333 103.916L348.175 100.373C348.313 100.206 348.475 100.106 348.661 100.073C348.857 100.045 349.058 100.087 349.264 100.197L351.063 101.162L348.628 105.701L352.422 107.736L351.096 110.209L347.302 108.174L343.111 115.987C342.87 116.437 342.794 116.848 342.883 117.222C342.972 117.596 343.204 117.883 343.579 118.084C343.794 118.199 343.985 118.271 344.15 118.3C344.33 118.324 344.487 118.336 344.62 118.335C344.763 118.339 344.889 118.34 344.998 118.339C345.113 118.328 345.212 118.345 345.296 118.39C345.399 118.445 345.469 118.519 345.504 118.61C345.545 118.692 345.575 118.805 345.594 118.948L345.73 121.192C344.998 121.342 344.246 121.349 343.475 121.213C342.703 121.076 341.966 120.82 341.264 120.443Z" fill="white"/>
<path d="M361.863 113.168C362.725 113.733 363.426 114.39 363.965 115.138C364.513 115.891 364.875 116.707 365.05 117.584C365.23 118.453 365.213 119.37 365 120.336C364.791 121.292 364.364 122.264 363.717 123.251C363.554 123.5 363.403 123.7 363.266 123.851C363.143 124 363.018 124.102 362.892 124.159C362.781 124.213 362.661 124.23 362.534 124.211C362.413 124.182 362.277 124.118 362.126 124.019L353.672 118.475C352.849 119.944 352.55 121.223 352.777 122.312C353.003 123.401 353.659 124.301 354.743 125.013C355.276 125.362 355.775 125.6 356.239 125.727C356.712 125.859 357.14 125.942 357.523 125.978C357.916 126.019 358.26 126.047 358.554 126.063C358.858 126.084 359.113 126.162 359.317 126.296C359.45 126.383 359.548 126.486 359.611 126.603C359.674 126.721 359.709 126.852 359.716 126.996L359.889 128.826C359.245 129.014 358.6 129.105 357.954 129.101C357.314 129.089 356.687 129.008 356.072 128.859C355.473 128.707 354.892 128.498 354.329 128.231C353.776 127.97 353.259 127.682 352.779 127.367C351.828 126.743 351.046 126.007 350.432 125.16C349.824 124.304 349.419 123.371 349.217 122.361C349.02 121.342 349.046 120.266 349.294 119.132C349.548 117.989 350.068 116.817 350.855 115.617C351.468 114.684 352.193 113.907 353.031 113.287C353.876 112.659 354.776 112.226 355.733 111.989C356.704 111.749 357.711 111.716 358.753 111.891C359.804 112.072 360.841 112.497 361.863 113.168ZM360.382 115.572C359.422 114.942 358.493 114.721 357.595 114.907C356.697 115.094 355.846 115.635 355.042 116.532L361.229 120.59C361.509 120.163 361.713 119.725 361.843 119.276C361.978 118.818 362.018 118.368 361.965 117.926C361.912 117.484 361.755 117.064 361.496 116.665C361.242 116.257 360.871 115.892 360.382 115.572Z" fill="white"/>
<path d="M376.621 128.386C376.432 128.453 376.268 128.479 376.13 128.464C375.999 128.441 375.863 128.374 375.722 128.261C375.572 128.142 375.443 127.971 375.334 127.749C375.234 127.533 375.111 127.286 374.966 127.008C374.828 126.721 374.646 126.42 374.421 126.105C374.205 125.797 373.901 125.487 373.51 125.176C372.903 124.693 372.322 124.441 371.767 124.421C371.213 124.401 370.77 124.598 370.439 125.014C370.22 125.289 370.122 125.591 370.145 125.921C370.182 126.25 370.29 126.601 370.469 126.974C370.656 127.354 370.89 127.751 371.171 128.165C371.46 128.571 371.746 128.996 372.031 129.441C372.316 129.885 372.576 130.343 372.812 130.816C373.054 131.28 373.214 131.761 373.293 132.259C373.388 132.755 373.376 133.256 373.26 133.761C373.151 134.272 372.892 134.786 372.482 135.302C371.992 135.917 371.426 136.398 370.784 136.743C370.149 137.08 369.463 137.268 368.726 137.306C367.996 137.336 367.224 137.204 366.412 136.911C365.614 136.615 364.803 136.14 363.98 135.485C363.539 135.134 363.14 134.748 362.782 134.327C362.425 133.921 362.108 133.492 361.83 133.04C361.56 132.594 361.334 132.143 361.154 131.686C360.982 131.237 360.86 130.801 360.79 130.377L362.434 129.771C362.638 129.702 362.832 129.68 363.017 129.704C363.201 129.729 363.389 129.817 363.58 129.97C363.772 130.122 363.907 130.318 363.988 130.559C364.076 130.806 364.183 131.081 364.308 131.385C364.434 131.688 364.603 132.013 364.816 132.36C365.038 132.713 365.382 133.075 365.848 133.445C366.214 133.737 366.559 133.943 366.883 134.066C367.222 134.186 367.531 134.242 367.81 134.233C368.097 134.23 368.351 134.167 368.571 134.044C368.807 133.919 369.004 133.756 369.163 133.557C369.401 133.257 369.505 132.939 369.474 132.602C369.452 132.272 369.347 131.917 369.16 131.537C368.982 131.164 368.744 130.771 368.447 130.358C368.166 129.944 367.878 129.511 367.585 129.061C367.3 128.616 367.036 128.155 366.792 127.675C366.564 127.195 366.409 126.698 366.328 126.185C366.255 125.679 366.286 125.153 366.421 124.608C366.564 124.07 366.861 123.518 367.311 122.952C367.728 122.428 368.229 122.012 368.815 121.704C369.4 121.395 370.031 121.225 370.708 121.193C371.401 121.16 372.129 121.278 372.893 121.547C373.673 121.814 374.457 122.262 375.248 122.891C376.129 123.592 376.816 124.377 377.308 125.244C377.8 126.111 378.098 126.973 378.203 127.832L376.621 128.386Z" fill="white"/>
<path d="M425.273 206.984L416.675 209.676L415.393 205.582L437.398 198.694L439.499 205.405C439.969 206.906 440.214 208.239 440.233 209.403C440.265 210.573 440.108 211.586 439.763 212.44C439.421 213.305 438.909 214.017 438.226 214.576C437.557 215.142 436.755 215.571 435.822 215.863C435.081 216.095 434.346 216.202 433.617 216.185C432.891 216.179 432.194 216.052 431.526 215.804C430.861 215.567 430.231 215.207 429.634 214.725C429.041 214.254 428.502 213.671 428.017 212.976C427.885 213.585 427.604 214.163 427.174 214.71L420.772 222.763L419.619 219.08C419.508 218.725 419.483 218.399 419.546 218.101C419.612 217.813 419.75 217.541 419.959 217.286L425.557 210.454C425.767 210.199 425.894 209.948 425.939 209.7C425.987 209.462 425.948 209.14 425.821 208.734L425.273 206.984ZM428.21 206.065L429.01 208.621C429.252 209.392 429.558 210.032 429.928 210.54C430.302 211.058 430.713 211.447 431.163 211.707C431.625 211.975 432.118 212.127 432.642 212.163C433.166 212.2 433.707 212.131 434.265 211.956C435.381 211.607 436.122 210.968 436.489 210.04C436.859 209.122 436.807 207.907 436.334 206.396L435.515 203.778L428.21 206.065Z" fill="white"/>
<path d="M438.637 228.204C438.831 229.217 438.847 230.177 438.686 231.085C438.527 232.003 438.193 232.83 437.685 233.566C437.187 234.3 436.517 234.927 435.675 235.446C434.843 235.963 433.848 236.332 432.689 236.555C432.396 236.611 432.148 236.642 431.944 236.649C431.752 236.664 431.591 236.646 431.463 236.595C431.346 236.552 431.251 236.479 431.177 236.374C431.113 236.267 431.064 236.125 431.03 235.947L429.125 226.019C427.497 226.45 426.371 227.126 425.747 228.047C425.123 228.968 424.933 230.065 425.177 231.339C425.297 231.965 425.473 232.489 425.706 232.91C425.94 233.341 426.178 233.707 426.42 234.007C426.663 234.317 426.882 234.584 427.076 234.806C427.273 235.039 427.394 235.276 427.44 235.516C427.47 235.672 427.465 235.814 427.424 235.941C427.383 236.068 427.314 236.184 427.215 236.29L426.022 237.688C425.439 237.356 424.924 236.957 424.477 236.49C424.041 236.022 423.662 235.516 423.341 234.971C423.032 234.435 422.778 233.872 422.579 233.282C422.381 232.703 422.228 232.132 422.12 231.568C421.905 230.451 421.889 229.377 422.07 228.347C422.261 227.314 422.649 226.374 423.233 225.525C423.828 224.675 424.619 223.944 425.606 223.333C426.603 222.719 427.806 222.277 429.215 222.007C430.312 221.797 431.374 221.777 432.403 221.948C433.442 222.116 434.379 222.461 435.216 222.983C436.064 223.513 436.788 224.213 437.388 225.083C437.99 225.963 438.406 227.003 438.637 228.204ZM435.88 228.814C435.663 227.687 435.176 226.866 434.417 226.351C433.658 225.836 432.676 225.602 431.473 225.649L432.867 232.916C433.369 232.82 433.825 232.662 434.238 232.442C434.661 232.22 435.012 231.936 435.292 231.59C435.572 231.244 435.765 230.839 435.871 230.375C435.987 229.909 435.99 229.388 435.88 228.814Z" fill="white"/>
<path d="M418.67 241.388L440.295 239.556L440.499 241.955C440.52 242.21 440.48 242.432 440.379 242.622C440.278 242.812 440.107 242.943 439.868 243.017L438.386 243.463C439.193 244.056 439.866 244.756 440.404 245.564C440.943 246.383 441.261 247.364 441.358 248.508C441.433 249.398 441.316 250.224 441.007 250.986C440.699 251.759 440.213 252.44 439.548 253.03C438.895 253.63 438.061 254.116 437.047 254.49C436.045 254.874 434.877 255.122 433.542 255.235C432.324 255.338 431.182 255.27 430.116 255.029C429.05 254.789 428.11 254.394 427.295 253.844C426.481 253.305 425.82 252.619 425.312 251.787C424.816 250.965 424.522 250.019 424.432 248.95C424.354 248.028 424.425 247.232 424.646 246.563C424.878 245.903 425.221 245.298 425.676 244.747L419.003 245.313L418.67 241.388ZM438.145 247.42C438.076 246.604 437.842 245.92 437.443 245.367C437.055 244.824 436.528 244.329 435.861 243.885L428.552 244.504C428.039 244.995 427.693 245.51 427.515 246.048C427.348 246.595 427.29 247.171 427.341 247.775C427.391 248.368 427.548 248.894 427.81 249.351C428.074 249.82 428.448 250.199 428.931 250.489C429.415 250.789 430.009 251 430.713 251.122C431.427 251.243 432.256 251.263 433.199 251.183C434.152 251.103 434.95 250.955 435.594 250.741C436.248 250.536 436.77 250.273 437.159 249.952C437.548 249.631 437.82 249.256 437.976 248.826C438.133 248.408 438.189 247.939 438.145 247.42Z" fill="white"/>
<path d="M424.995 271.218L425.029 269.448C425.037 269.076 425.096 268.785 425.206 268.575C425.327 268.364 425.559 268.209 425.901 268.11L427.072 267.782C426.708 267.36 426.387 266.944 426.108 266.535C425.839 266.136 425.613 265.722 425.43 265.293C425.247 264.865 425.113 264.41 425.026 263.93C424.94 263.45 424.903 262.917 424.914 262.333C424.928 261.642 425.031 261.006 425.223 260.425C425.426 259.844 425.717 259.345 426.098 258.927C426.478 258.52 426.947 258.205 427.504 257.982C428.061 257.759 428.707 257.655 429.44 257.669C430.056 257.681 430.659 257.852 431.248 258.183C431.847 258.524 432.379 259.077 432.842 259.841C433.316 260.606 433.7 261.618 433.995 262.878C434.289 264.139 434.439 265.699 434.445 267.56L435.401 267.579C436.496 267.601 437.308 267.383 437.838 266.925C438.379 266.479 438.658 265.814 438.675 264.932C438.688 264.295 438.624 263.762 438.483 263.334C438.343 262.905 438.18 262.53 437.995 262.207C437.82 261.896 437.661 261.605 437.518 261.337C437.374 261.068 437.306 260.774 437.312 260.456C437.317 260.19 437.391 259.963 437.533 259.774C437.675 259.586 437.848 259.435 438.052 259.322L439.326 258.629C441.01 260.544 441.827 262.831 441.774 265.488C441.755 266.444 441.579 267.291 441.246 268.029C440.923 268.778 440.474 269.407 439.901 269.917C439.338 270.426 438.666 270.807 437.885 271.057C437.103 271.318 436.25 271.44 435.326 271.421L424.995 271.218ZM427.6 263.614C427.593 264.018 427.622 264.39 427.69 264.732C427.758 265.073 427.863 265.394 428.006 265.695C428.149 266.006 428.324 266.302 428.531 266.583C428.748 266.874 429.003 267.166 429.295 267.459L432.053 267.513C432.023 266.364 431.941 265.4 431.807 264.622C431.684 263.854 431.515 263.234 431.301 262.761C431.087 262.289 430.834 261.95 430.54 261.742C430.246 261.545 429.924 261.442 429.573 261.436C428.882 261.422 428.384 261.614 428.079 262.012C427.773 262.421 427.613 262.955 427.6 263.614Z" fill="white"/>
<path d="M419.643 279.247C419.382 279.099 419.194 278.921 419.08 278.715C418.953 278.518 418.912 278.229 418.957 277.849L419.302 274.936L425.451 278.746L441.272 273.954L440.867 277.375C440.83 277.692 440.727 277.926 440.559 278.077C440.392 278.229 440.208 278.335 440.008 278.397L431.173 280.868C430.885 280.952 430.588 281.019 430.282 281.068C429.976 281.118 429.672 281.156 429.369 281.185C429.665 281.306 429.95 281.43 430.224 281.559C430.497 281.698 430.774 281.843 431.056 281.995L439.078 286.252C439.279 286.361 439.437 286.519 439.552 286.725C439.666 286.942 439.708 287.172 439.679 287.415L439.308 290.55L419.643 279.247Z" fill="white"/>
<path d="M435.759 307.232C435.443 308.413 434.967 309.431 434.332 310.284C433.693 311.148 432.934 311.825 432.055 312.316C431.175 312.807 430.183 313.103 429.077 313.203C427.972 313.304 426.798 313.188 425.555 312.855C424.302 312.52 423.222 312.033 422.315 311.394C421.407 310.755 420.69 310.002 420.163 309.134C419.635 308.267 419.311 307.3 419.189 306.233C419.065 305.176 419.16 304.057 419.476 302.876C419.792 301.695 420.27 300.673 420.908 299.809C421.546 298.946 422.311 298.265 423.204 297.766C424.094 297.278 425.093 296.978 426.201 296.868C427.306 296.767 428.486 296.885 429.738 297.22C430.981 297.552 432.056 298.038 432.964 298.677C433.868 299.326 434.579 300.083 435.096 300.948C435.61 301.823 435.928 302.793 436.05 303.86C436.172 304.927 436.075 306.051 435.759 307.232ZM422.403 303.659C422.052 304.974 422.234 306.062 422.949 306.925C423.662 307.798 424.871 308.463 426.575 308.919C428.28 309.375 429.664 309.404 430.728 309.006C431.789 308.619 432.496 307.768 432.847 306.454C433.204 305.118 433.016 304.012 432.283 303.133C431.56 302.258 430.351 301.593 428.657 301.14C426.962 300.686 425.583 300.658 424.519 301.056C423.466 301.457 422.76 302.324 422.403 303.659Z" fill="white"/>
<path d="M416.775 313.113L432.02 319.053L431.145 321.297C430.96 321.772 430.616 321.997 430.112 321.972L428.81 321.756C429.007 322.186 429.169 322.62 429.296 323.057C429.418 323.504 429.5 323.953 429.542 324.403C429.579 324.862 429.563 325.329 429.492 325.804C429.421 326.278 429.285 326.773 429.085 327.288C428.761 328.12 428.329 328.802 427.791 329.334C427.263 329.87 426.658 330.25 425.977 330.475C425.302 330.714 424.566 330.804 423.768 330.744C422.976 330.698 422.154 330.509 421.302 330.177L411.6 326.396L413.03 322.726L422.732 326.507C423.663 326.87 424.466 326.931 425.141 326.692C425.822 326.467 426.33 325.924 426.666 325.062C426.913 324.428 427.001 323.778 426.93 323.111C426.859 322.445 426.672 321.767 426.37 321.079L415.345 316.783L416.775 313.113Z" fill="white"/>
<path d="M404.648 339.382C405.327 338.141 406.2 337.377 407.267 337.089C408.344 336.806 409.502 337.004 410.742 337.683L418.756 342.072L419.552 340.617C419.655 340.431 419.805 340.301 420.002 340.227C420.195 340.163 420.413 340.197 420.655 340.33L422.026 341.081L421.139 343.595L424.657 346.467C424.823 346.607 424.922 346.77 424.953 346.957C424.979 347.153 424.936 347.353 424.823 347.558L423.843 349.348L419.325 346.874L417.257 350.651L414.796 349.303L416.864 345.526L409.088 341.268C408.64 341.022 408.229 340.943 407.855 341.029C407.481 341.115 407.191 341.344 406.987 341.717C406.87 341.931 406.796 342.121 406.766 342.287C406.74 342.467 406.727 342.623 406.727 342.756C406.722 342.899 406.719 343.025 406.72 343.134C406.73 343.249 406.712 343.348 406.666 343.432C406.61 343.535 406.536 343.603 406.444 343.638C406.362 343.678 406.249 343.707 406.106 343.725L403.86 343.841C403.717 343.108 403.716 342.356 403.859 341.586C404.002 340.816 404.265 340.081 404.648 339.382Z" fill="white"/>
<path d="M413.1 357.538L399.274 348.791L401.379 345.463L415.205 354.209L413.1 357.538ZM416.814 360.585C416.526 360.404 416.294 360.175 416.116 359.899C415.938 359.623 415.818 359.326 415.754 359.009C415.685 358.701 415.674 358.38 415.722 358.046C415.779 357.717 415.901 357.404 416.089 357.108C416.271 356.82 416.498 356.581 416.771 356.388C417.047 356.211 417.339 356.087 417.647 356.018C417.955 355.948 418.271 355.935 418.597 355.977C418.916 356.029 419.22 356.145 419.508 356.327C419.804 356.515 420.048 356.745 420.241 357.017C420.427 357.299 420.555 357.594 420.625 357.902C420.694 358.21 420.703 358.524 420.652 358.843C420.604 359.178 420.489 359.489 420.307 359.776C420.119 360.073 419.885 360.314 419.603 360.501C419.33 360.693 419.04 360.824 418.732 360.893C418.418 360.972 418.094 360.987 417.76 360.939C417.426 360.891 417.11 360.773 416.814 360.585Z" fill="white"/>
<path d="M397.411 352.265L410.24 362.418L408.746 364.306C408.429 364.706 408.034 364.82 407.56 364.649L406.451 364.097C406.523 364.52 406.568 364.934 406.585 365.341C406.595 365.756 406.567 366.16 406.499 366.554C406.425 366.956 406.304 367.349 406.137 367.732C405.971 368.129 405.737 368.52 405.433 368.903C404.793 369.712 404.048 370.2 403.197 370.367C402.348 370.549 401.459 370.482 400.529 370.167C400.796 370.703 400.96 371.24 401.023 371.778C401.094 372.322 401.083 372.849 400.991 373.36C400.899 373.87 400.741 374.361 400.516 374.834C400.284 375.315 400.007 375.76 399.684 376.168C399.123 376.877 398.517 377.42 397.864 377.799C397.212 378.178 396.529 378.39 395.816 378.435C395.102 378.48 394.369 378.361 393.617 378.078C392.859 377.803 392.092 377.359 391.317 376.745L383.152 370.283L385.596 367.195L393.761 373.657C394.578 374.303 395.332 374.609 396.025 374.574C396.725 374.545 397.349 374.185 397.897 373.493C398.147 373.176 398.327 372.837 398.437 372.477C398.539 372.124 398.569 371.761 398.526 371.388C398.484 371.029 398.355 370.67 398.139 370.309C397.923 369.948 397.615 369.609 397.215 369.293L389.049 362.831L391.504 359.73L399.669 366.192C400.527 366.871 401.291 367.191 401.96 367.151C402.622 367.119 403.22 366.766 403.755 366.091C404.104 365.649 404.322 365.143 404.407 364.573C404.494 364.018 404.477 363.422 404.358 362.785L394.967 355.353L397.411 352.265Z" fill="white"/>
<path d="M387.453 389.076C386.713 389.793 385.919 390.333 385.071 390.696C384.215 391.066 383.341 391.24 382.446 391.218C381.559 391.204 380.668 390.987 379.773 390.567C378.885 390.154 378.03 389.524 377.209 388.677C377.002 388.463 376.839 388.272 376.722 388.105C376.604 387.953 376.531 387.809 376.503 387.673C376.475 387.552 376.484 387.432 376.531 387.313C376.586 387.201 376.678 387.082 376.808 386.956L384.069 379.922C382.816 378.797 381.634 378.225 380.521 378.208C379.409 378.19 378.387 378.633 377.455 379.535C376.997 379.979 376.656 380.413 376.431 380.838C376.199 381.271 376.023 381.67 375.905 382.036C375.778 382.41 375.675 382.74 375.596 383.024C375.508 383.316 375.377 383.547 375.201 383.717C375.087 383.828 374.965 383.901 374.837 383.937C374.709 383.972 374.573 383.978 374.431 383.953L372.608 383.721C372.566 383.051 372.617 382.402 372.763 381.772C372.915 381.151 373.131 380.557 373.411 379.99C373.69 379.438 374.022 378.917 374.406 378.427C374.782 377.944 375.176 377.503 375.588 377.103C376.405 376.312 377.294 375.71 378.256 375.296C379.224 374.891 380.223 374.7 381.253 374.724C382.29 374.755 383.335 375.016 384.387 375.506C385.447 376.004 386.476 376.769 387.474 377.799C388.251 378.601 388.85 379.479 389.271 380.433C389.699 381.394 389.924 382.368 389.946 383.353C389.968 384.353 389.779 385.343 389.38 386.321C388.974 387.307 388.331 388.225 387.453 389.076ZM385.432 387.104C386.257 386.305 386.676 385.447 386.691 384.531C386.705 383.614 386.363 382.665 385.665 381.684L380.351 386.832C380.706 387.198 381.088 387.494 381.498 387.719C381.915 387.951 382.346 388.089 382.788 388.134C383.231 388.178 383.676 388.118 384.122 387.952C384.576 387.794 385.012 387.511 385.432 387.104Z" fill="white"/>
<path d="M294.685 442.805L293.936 439.362L300.714 437.888L296.562 418.8L300.754 417.888L304.906 436.976L311.715 435.495L312.464 438.938L294.685 442.805Z" fill="white"/>
<path d="M278.839 421.518L280.594 421.287C280.963 421.239 281.26 421.253 281.484 421.331C281.71 421.419 281.898 421.625 282.048 421.949L282.548 423.057C282.91 422.634 283.273 422.254 283.636 421.917C283.99 421.591 284.365 421.306 284.762 421.061C285.159 420.816 285.588 420.615 286.05 420.457C286.512 420.3 287.032 420.183 287.612 420.107C288.297 420.017 288.941 420.023 289.545 420.126C290.149 420.24 290.687 420.453 291.157 420.767C291.616 421.082 291.998 421.498 292.302 422.015C292.606 422.533 292.806 423.155 292.901 423.883C292.982 424.494 292.903 425.116 292.664 425.747C292.416 426.391 291.949 426.999 291.264 427.572C290.579 428.155 289.636 428.687 288.433 429.167C287.231 429.646 285.711 430.029 283.872 430.313L283.997 431.262C284.139 432.348 284.477 433.118 285.008 433.574C285.531 434.041 286.229 434.217 287.104 434.102C287.737 434.019 288.254 433.876 288.656 433.673C289.058 433.47 289.405 433.253 289.696 433.021C289.978 432.802 290.242 432.601 290.486 432.419C290.73 432.237 291.01 432.125 291.326 432.083C291.59 432.049 291.825 432.087 292.033 432.199C292.241 432.311 292.416 432.46 292.558 432.645L293.434 433.8C291.793 435.753 289.655 436.903 287.02 437.249C286.071 437.374 285.207 437.327 284.428 437.108C283.639 436.901 282.95 436.552 282.36 436.061C281.771 435.581 281.295 434.973 280.93 434.239C280.555 433.505 280.307 432.68 280.186 431.763L278.839 421.518ZM286.748 422.955C286.348 423.008 285.984 423.093 285.656 423.211C285.328 423.329 285.027 423.482 284.751 423.668C284.465 423.856 284.198 424.073 283.952 424.32C283.697 424.579 283.446 424.874 283.2 425.207L283.56 427.942C284.691 427.739 285.632 427.514 286.382 427.265C287.123 427.028 287.711 426.769 288.145 426.486C288.58 426.204 288.878 425.902 289.039 425.581C289.19 425.261 289.243 424.927 289.197 424.579C289.107 423.894 288.842 423.43 288.403 423.188C287.953 422.947 287.402 422.869 286.748 422.955Z" fill="white"/>
<path d="M272.177 445.589L271.797 432.024L271.064 432.044C270.798 432.052 270.592 432.095 270.446 432.173C270.299 432.252 270.143 432.395 269.979 432.601L266.055 437.736C265.88 437.954 265.693 438.124 265.495 438.246C265.296 438.379 265.032 438.45 264.703 438.46L261.101 438.56L266.016 432.345C266.19 432.117 266.37 431.905 266.556 431.708C266.742 431.522 266.945 431.357 267.164 431.212C266.937 431.059 266.735 430.879 266.559 430.671C266.383 430.463 266.207 430.239 266.03 430L260.356 422.214L263.911 422.115C264.219 422.106 264.481 422.152 264.696 422.252C264.912 422.353 265.108 422.528 265.285 422.778L269.619 428.863C269.785 429.102 269.949 429.257 270.111 429.327C270.272 429.397 270.512 429.428 270.831 429.419L271.724 429.394L271.514 421.902L275.451 421.792L276.114 445.479L272.177 445.589Z" fill="white"/>
<path d="M251.461 438.188C250.432 438.116 249.5 437.885 248.664 437.495C247.818 437.105 247.104 436.57 246.524 435.889C245.942 435.22 245.509 434.411 245.224 433.464C244.939 432.527 244.837 431.47 244.921 430.293C244.942 429.996 244.975 429.748 245.021 429.549C245.056 429.36 245.114 429.209 245.197 429.098C245.268 428.996 245.364 428.923 245.484 428.878C245.604 428.844 245.754 428.833 245.934 428.846L256.019 429.558C256.02 427.874 255.656 426.612 254.927 425.772C254.198 424.932 253.186 424.466 251.893 424.375C251.256 424.33 250.705 424.366 250.238 424.482C249.761 424.598 249.347 424.734 248.995 424.89C248.632 425.045 248.318 425.189 248.053 425.319C247.778 425.449 247.518 425.505 247.274 425.488C247.115 425.477 246.979 425.435 246.867 425.363C246.755 425.291 246.661 425.194 246.584 425.071L245.54 423.559C246.011 423.081 246.529 422.686 247.094 422.374C247.659 422.073 248.246 421.837 248.855 421.667C249.452 421.507 250.061 421.406 250.682 421.364C251.293 421.322 251.884 421.321 252.457 421.362C253.592 421.442 254.634 421.702 255.583 422.142C256.532 422.593 257.341 423.209 258.01 423.992C258.679 424.785 259.182 425.737 259.519 426.848C259.855 427.969 259.973 429.246 259.872 430.677C259.793 431.791 259.539 432.823 259.11 433.773C258.68 434.733 258.105 435.551 257.386 436.225C256.656 436.909 255.793 437.428 254.798 437.784C253.793 438.14 252.68 438.274 251.461 438.188ZM251.58 435.367C252.725 435.448 253.644 435.188 254.337 434.587C255.029 433.986 255.508 433.097 255.772 431.922L248.391 431.401C248.355 431.91 248.39 432.393 248.497 432.848C248.603 433.313 248.787 433.726 249.049 434.086C249.311 434.445 249.653 434.736 250.074 434.957C250.495 435.189 250.997 435.326 251.58 435.367Z" fill="white"/>
<path d="M230.527 427.695L232.514 418.907L236.698 419.853L231.614 442.344L224.755 440.793C223.22 440.446 221.945 439.989 220.929 439.421C219.9 438.862 219.103 438.218 218.537 437.491C217.961 436.761 217.602 435.961 217.461 435.09C217.307 434.227 217.338 433.318 217.554 432.364C217.725 431.607 218.001 430.918 218.381 430.295C218.752 429.671 219.211 429.131 219.761 428.678C220.3 428.222 220.927 427.857 221.643 427.583C222.348 427.307 223.123 427.133 223.968 427.062C223.507 426.642 223.148 426.109 222.891 425.462L219.138 415.884L222.902 416.734C223.265 416.817 223.56 416.959 223.786 417.163C224.002 417.365 224.168 417.62 224.283 417.929L227.383 426.2C227.499 426.509 227.652 426.745 227.844 426.909C228.026 427.07 228.324 427.197 228.739 427.291L230.527 427.695ZM229.849 430.697L227.236 430.106C226.448 429.928 225.741 429.872 225.116 429.938C224.48 430.001 223.937 430.162 223.487 430.419C223.023 430.685 222.644 431.036 222.35 431.47C222.056 431.905 221.844 432.408 221.715 432.978C221.457 434.119 221.637 435.08 222.256 435.863C222.864 436.644 223.941 437.209 225.486 437.558L228.161 438.163L229.849 430.697Z" fill="white"/>
<path d="M205.444 428.587C204.471 428.246 203.633 427.777 202.93 427.181C202.216 426.581 201.669 425.876 201.289 425.067C200.905 424.267 200.7 423.373 200.676 422.384C200.647 421.406 200.829 420.359 201.219 419.246C201.318 418.965 201.416 418.735 201.513 418.555C201.596 418.381 201.692 418.252 201.801 418.166C201.897 418.087 202.008 418.041 202.136 418.03C202.261 418.028 202.408 418.058 202.579 418.118L212.118 421.465C212.564 419.842 212.546 418.529 212.064 417.526C211.582 416.523 210.729 415.807 209.506 415.377C208.904 415.166 208.363 415.055 207.882 415.044C207.391 415.03 206.956 415.051 206.575 415.109C206.184 415.164 205.843 415.219 205.553 415.275C205.253 415.327 204.988 415.313 204.757 415.232C204.607 415.179 204.487 415.103 204.398 415.004C204.309 414.905 204.243 414.787 204.202 414.648L203.594 412.914C204.174 412.577 204.778 412.332 205.406 412.181C206.03 412.039 206.658 411.967 207.29 411.963C207.909 411.967 208.523 412.03 209.133 412.154C209.733 412.274 210.304 412.43 210.845 412.62C211.919 412.996 212.855 413.522 213.655 414.197C214.451 414.882 215.068 415.69 215.508 416.622C215.943 417.563 216.177 418.614 216.209 419.775C216.238 420.945 216.015 422.208 215.539 423.562C215.17 424.615 214.653 425.543 213.988 426.346C213.319 427.16 212.549 427.796 211.678 428.257C210.793 428.723 209.824 428.997 208.77 429.078C207.707 429.156 206.598 428.992 205.444 428.587ZM206.304 425.897C207.387 426.278 208.342 426.269 209.169 425.872C209.995 425.475 210.691 424.744 211.256 423.681L204.274 421.231C204.105 421.712 204.012 422.186 203.995 422.654C203.974 423.131 204.042 423.577 204.201 423.993C204.359 424.409 204.612 424.78 204.96 425.105C205.304 425.44 205.752 425.704 206.304 425.897Z" fill="white"/>
<path d="M188.33 429.327L197.896 407.648L201.499 409.238L191.934 430.917L188.33 429.327Z" fill="white"/>
<path d="M180.132 417.338C179.057 416.755 178.179 416.056 177.497 415.239C176.806 414.417 176.324 413.521 176.051 412.552C175.779 411.582 175.722 410.548 175.882 409.449C176.042 408.351 176.428 407.236 177.041 406.105C177.659 404.965 178.384 404.028 179.217 403.294C180.05 402.561 180.949 402.038 181.915 401.728C182.882 401.417 183.898 401.327 184.964 401.457C186.021 401.582 187.086 401.936 188.161 402.518C189.236 403.101 190.119 403.803 190.81 404.625C191.502 405.446 191.986 406.349 192.263 407.334C192.53 408.313 192.589 409.354 192.438 410.457C192.278 411.556 191.89 412.675 191.272 413.815C190.659 414.946 189.936 415.879 189.103 416.612C188.261 417.341 187.36 417.856 186.398 418.157C185.428 418.454 184.409 418.537 183.343 418.407C182.277 418.276 181.207 417.92 180.132 417.338ZM186.718 405.182C185.522 404.534 184.42 404.457 183.415 404.952C182.4 405.442 181.472 406.463 180.631 408.014C179.791 409.566 179.44 410.905 179.579 412.033C179.708 413.155 180.371 414.04 181.568 414.688C182.783 415.346 183.903 415.421 184.928 414.913C185.948 414.413 186.876 413.393 187.712 411.85C188.547 410.308 188.896 408.973 188.757 407.846C188.613 406.728 187.933 405.84 186.718 405.182Z" fill="white"/>
<path d="M168.252 390.226L169.712 391.226C170.019 391.436 170.23 391.645 170.345 391.853C170.455 392.07 170.457 392.349 170.352 392.689L169.984 393.848C170.536 393.775 171.06 393.735 171.555 393.726C172.036 393.721 172.506 393.759 172.965 393.842C173.424 393.924 173.878 394.061 174.326 394.253C174.775 394.444 175.241 394.705 175.723 395.035C176.293 395.426 176.768 395.861 177.148 396.341C177.522 396.829 177.78 397.347 177.92 397.894C178.052 398.435 178.058 399 177.939 399.588C177.819 400.177 177.552 400.773 177.137 401.378C176.789 401.887 176.315 402.297 175.715 402.608C175.101 402.921 174.347 403.062 173.454 403.03C172.555 403.007 171.498 402.772 170.283 402.326C169.068 401.88 167.681 401.149 166.122 400.133L165.581 400.922C164.963 401.825 164.699 402.624 164.79 403.318C164.867 404.015 165.269 404.613 165.997 405.111C166.523 405.472 167.004 405.711 167.439 405.828C167.874 405.946 168.277 406.016 168.648 406.038C169.004 406.064 169.334 406.09 169.638 406.117C169.941 406.145 170.224 406.249 170.487 406.429C170.707 406.579 170.856 406.765 170.936 406.987C171.016 407.21 171.047 407.437 171.029 407.67L170.909 409.115C168.383 409.472 166.024 408.899 163.832 407.397C163.042 406.856 162.431 406.244 161.997 405.56C161.549 404.879 161.269 404.159 161.158 403.4C161.041 402.65 161.092 401.879 161.311 401.089C161.522 400.292 161.889 399.513 162.411 398.75L168.252 390.226ZM173.178 396.578C172.845 396.349 172.517 396.17 172.194 396.039C171.871 395.908 171.545 395.82 171.215 395.774C170.877 395.723 170.534 395.707 170.186 395.726C169.823 395.748 169.439 395.8 169.034 395.884L167.474 398.159C168.451 398.765 169.302 399.225 170.026 399.541C170.736 399.859 171.347 400.059 171.859 400.139C172.371 400.219 172.794 400.194 173.129 400.062C173.455 399.925 173.717 399.712 173.916 399.422C174.306 398.852 174.419 398.33 174.254 397.856C174.08 397.376 173.722 396.95 173.178 396.578Z" fill="white"/>
<path d="M165.577 388.207L154.985 400.676L153.15 399.117C152.761 398.786 152.661 398.387 152.849 397.919L153.479 396.76C153.007 396.805 152.544 396.817 152.09 396.793C151.627 396.763 151.177 396.694 150.738 396.587C150.291 396.472 149.855 396.304 149.43 396.082C149.005 395.86 148.581 395.57 148.16 395.213C147.48 394.634 146.976 394.004 146.649 393.322C146.315 392.648 146.153 391.952 146.162 391.235C146.157 390.519 146.313 389.793 146.63 389.059C146.932 388.325 147.379 387.61 147.971 386.913L154.713 378.977L157.714 381.527L150.973 389.463C150.326 390.225 150.005 390.963 150.011 391.679C150.001 392.397 150.349 393.055 151.054 393.654C151.572 394.094 152.158 394.39 152.811 394.54C153.465 394.69 154.166 394.735 154.915 394.674L162.576 385.657L165.577 388.207Z" fill="white"/>
<path d="M133.265 380.315L145.249 369.178L147.93 372.063L135.946 383.201L133.265 380.315ZM129.37 383.129C129.62 382.897 129.9 382.731 130.212 382.629C130.524 382.528 130.842 382.487 131.165 382.506C131.48 382.518 131.793 382.59 132.105 382.721C132.408 382.86 132.679 383.058 132.918 383.315C133.149 383.564 133.323 383.845 133.44 384.158C133.541 384.47 133.586 384.784 133.575 385.1C133.563 385.415 133.495 385.725 133.371 386.029C133.24 386.325 133.05 386.588 132.801 386.82C132.544 387.059 132.259 387.236 131.946 387.353C131.626 387.462 131.309 387.51 130.993 387.499C130.678 387.487 130.372 387.416 130.076 387.284C129.765 387.153 129.493 386.962 129.262 386.713C129.023 386.456 128.849 386.168 128.741 385.848C128.624 385.535 128.572 385.221 128.583 384.905C128.588 384.582 128.656 384.265 128.787 383.954C128.919 383.643 129.113 383.368 129.37 383.129Z" fill="white"/>
<path d="M142.478 366.253L129.631 376.382L128.14 374.492C127.824 374.091 127.804 373.68 128.081 373.258L128.928 372.246C128.457 372.198 128.001 372.117 127.56 372.004C127.112 371.883 126.684 371.727 126.276 371.535C125.86 371.334 125.466 371.083 125.093 370.782C124.72 370.48 124.362 370.112 124.02 369.678C123.467 368.977 123.098 368.26 122.912 367.526C122.718 366.799 122.697 366.085 122.848 365.384C122.984 364.681 123.28 364.001 123.736 363.343C124.178 362.684 124.757 362.071 125.475 361.505L133.652 355.058L136.091 358.151L127.914 364.598C127.129 365.217 126.669 365.878 126.533 366.581C126.381 367.282 126.592 367.996 127.165 368.722C127.586 369.256 128.102 369.662 128.713 369.938C129.323 370.215 130.002 370.397 130.748 370.486L140.04 363.16L142.478 366.253Z" fill="white"/>
<path d="M103.12 346.095C103.609 345.816 104.096 345.746 104.58 345.886C105.058 346.016 105.503 346.442 105.915 347.162L109.063 352.672L113.656 351.003C112.954 350.204 112.39 349.431 111.963 348.683C111.362 347.631 110.991 346.618 110.851 345.645C110.706 344.663 110.755 343.741 110.998 342.88C111.241 342.019 111.657 341.236 112.246 340.532C112.826 339.833 113.546 339.239 114.404 338.748C115.466 338.142 116.543 337.777 117.636 337.655C118.724 337.523 119.771 337.61 120.779 337.916C121.777 338.227 122.708 338.742 123.571 339.461C124.43 340.17 125.165 341.06 125.777 342.131C126.135 342.759 126.411 343.391 126.603 344.028C126.796 344.665 126.928 345.293 127.001 345.913C127.059 346.529 127.07 347.128 127.036 347.711C126.987 348.29 126.901 348.835 126.777 349.346L124.722 349.125C124.282 349.083 123.956 348.877 123.745 348.508C123.613 348.277 123.555 348.004 123.571 347.689C123.582 347.364 123.585 346.995 123.581 346.581C123.577 346.167 123.53 345.71 123.441 345.21C123.351 344.711 123.137 344.165 122.8 343.575C122.441 342.947 122.023 342.451 121.546 342.087C121.069 341.723 120.56 341.487 120.021 341.379C119.467 341.267 118.896 341.275 118.308 341.403C117.706 341.527 117.109 341.757 116.518 342.095C115.429 342.717 114.762 343.521 114.516 344.506C114.257 345.487 114.477 346.591 115.179 347.819C115.733 348.788 116.464 349.662 117.374 350.44L117.983 352.92L107.314 356.812L101.666 346.926L103.12 346.095Z" fill="white"/>
<path d="M117.078 326.475L101.682 332.009L100.867 329.743C100.694 329.263 100.806 328.867 101.202 328.555L102.257 327.905C101.859 327.743 101.484 327.562 101.129 327.361C100.771 327.151 100.443 326.913 100.144 326.648C99.8417 326.373 99.5722 326.063 99.3355 325.719C99.0852 325.368 98.8774 324.963 98.712 324.503C98.3631 323.532 98.3424 322.642 98.6496 321.831C98.9433 321.013 99.4695 320.293 100.228 319.67C99.6319 319.614 99.0888 319.47 98.5992 319.239C98.0996 319.012 97.6575 318.725 97.2727 318.377C96.888 318.03 96.5543 317.636 96.2717 317.195C95.9854 316.745 95.7542 316.274 95.578 315.784C95.2723 314.934 95.1309 314.132 95.1536 313.378C95.1764 312.624 95.3569 311.932 95.6953 311.302C96.0337 310.672 96.5217 310.113 97.1592 309.624C97.7932 309.125 98.5754 308.708 99.5058 308.374L109.305 304.851L110.637 308.558L100.838 312.08C99.8577 312.433 99.1997 312.912 98.8642 313.518C98.5186 314.128 98.4951 314.848 98.7936 315.679C98.9302 316.059 99.1229 316.391 99.3716 316.674C99.6167 316.947 99.9093 317.164 100.249 317.324C100.576 317.478 100.949 317.559 101.37 317.566C101.79 317.573 102.24 317.49 102.721 317.317L112.52 313.795L113.857 317.516L104.058 321.039C103.028 321.409 102.353 321.889 102.034 322.478C101.711 323.057 101.696 323.752 101.987 324.562C102.177 325.092 102.492 325.544 102.931 325.917C103.357 326.284 103.872 326.585 104.476 326.819L115.745 322.768L117.078 326.475Z" fill="white"/>
<path d="M91.9385 301.303L107.836 297.439L108.767 301.266L92.8688 305.13L91.9385 301.303ZM87.1662 301.856C87.4968 301.775 87.823 301.767 88.1449 301.831C88.4668 301.895 88.7638 302.014 89.036 302.189C89.3056 302.353 89.544 302.569 89.7511 302.836C89.9479 303.105 90.0877 303.41 90.1705 303.751C90.2509 304.082 90.2655 304.412 90.2144 304.741C90.1504 305.063 90.0363 305.359 89.8721 305.629C89.7079 305.898 89.4975 306.135 89.2409 306.34C88.9818 306.534 88.6869 306.672 88.3564 306.752C88.0155 306.835 87.6802 306.851 87.3505 306.8C87.0183 306.738 86.7174 306.625 86.4477 306.461C86.1781 306.297 85.9461 306.085 85.7518 305.826C85.5447 305.559 85.401 305.26 85.3207 304.93C85.2378 304.589 85.2271 304.252 85.2886 303.92C85.3397 303.591 85.4474 303.291 85.6116 303.021C85.7733 302.741 85.9876 302.498 86.2545 302.291C86.5214 302.083 86.8254 301.938 87.1662 301.856Z" fill="white"/>
<path d="M106.847 293.525L90.6909 296.102L90.3117 293.724C90.2313 293.22 90.4148 292.852 90.8621 292.619L92.0949 292.148C91.707 291.876 91.3482 291.583 91.0183 291.27C90.6868 290.946 90.3894 290.6 90.1264 290.233C89.8616 289.856 89.6399 289.444 89.4612 288.999C89.2826 288.554 89.1497 288.058 89.0627 287.513C88.922 286.631 88.9495 285.824 89.1451 285.093C89.3302 284.364 89.6597 283.73 90.1336 283.192C90.5954 282.645 91.1857 282.195 91.9047 281.844C92.6116 281.483 93.4164 281.231 94.3193 281.087L104.602 279.447L105.222 283.337L94.9396 284.977C93.9528 285.134 93.2285 285.486 92.7668 286.034C92.2929 286.572 92.1288 287.298 92.2744 288.211C92.3816 288.883 92.6343 289.489 93.0325 290.028C93.4307 290.568 93.9341 291.058 94.5427 291.499L106.227 289.635L106.847 293.525Z" fill="white"/>
<path d="M87.7535 273.347L98.1375 272.831C99.1355 272.782 99.8993 272.515 100.429 272.031C100.947 271.537 101.183 270.828 101.137 269.904C101.104 269.225 100.923 268.595 100.597 268.015C100.259 267.436 99.8118 266.894 99.2546 266.39L87.4372 266.976L87.2419 263.042L103.582 262.231L103.702 264.636C103.727 265.146 103.505 265.492 103.035 265.675L101.742 266.011C102.099 266.334 102.43 266.668 102.734 267.015C103.028 267.362 103.286 267.738 103.509 268.142C103.72 268.536 103.89 268.969 104.02 269.442C104.16 269.903 104.244 270.405 104.27 270.946C104.315 271.838 104.205 272.636 103.942 273.341C103.668 274.036 103.267 274.631 102.738 275.125C102.209 275.62 101.573 276.008 100.832 276.29C100.079 276.561 99.2459 276.72 98.3327 276.765L87.9487 277.281L87.7535 273.347Z" fill="white"/>
<path d="M104.181 253.132C104.121 254.544 103.677 255.616 102.849 256.347C102.009 257.078 100.883 257.414 99.4706 257.354L90.3416 256.971L90.2719 258.627C90.263 258.84 90.1861 259.023 90.0414 259.176C89.897 259.319 89.6868 259.385 89.4106 259.373L87.8493 259.308L87.5297 256.661L83.1036 255.645C82.893 255.593 82.7323 255.491 82.6218 255.337C82.5116 255.173 82.4615 254.974 82.4713 254.74L82.5571 252.701L87.7031 252.917L87.884 248.616L90.688 248.734L90.5071 253.035L99.3653 253.408C99.8751 253.429 100.279 253.319 100.576 253.076C100.874 252.833 101.031 252.499 101.049 252.074C101.06 251.83 101.041 251.627 100.995 251.465C100.938 251.293 100.881 251.147 100.822 251.027C100.764 250.897 100.71 250.783 100.661 250.685C100.601 250.587 100.573 250.49 100.577 250.395C100.582 250.278 100.618 250.183 100.685 250.112C100.741 250.04 100.829 249.964 100.95 249.884L102.911 248.785C103.365 249.379 103.699 250.052 103.912 250.806C104.125 251.56 104.214 252.335 104.181 253.132Z" fill="white"/>
<path d="M88.6705 237.747C88.8049 236.725 89.0916 235.808 89.5305 234.997C89.9709 234.176 90.5481 233.496 91.2622 232.957C91.9658 232.417 92.799 232.033 93.7617 231.806C94.7138 231.577 95.7749 231.54 96.9448 231.694C97.24 231.732 97.4856 231.781 97.6817 231.839C97.8686 231.885 98.0152 231.952 98.1215 232.041C98.2186 232.118 98.2858 232.218 98.3233 232.341C98.3502 232.463 98.3519 232.613 98.3283 232.792L97.0108 242.816C98.6914 242.919 99.9729 242.631 100.855 241.954C101.738 241.277 102.264 240.295 102.433 239.009C102.516 238.377 102.513 237.824 102.425 237.352C102.339 236.868 102.228 236.446 102.093 236.086C101.96 235.714 101.836 235.392 101.722 235.12C101.609 234.837 101.568 234.574 101.6 234.332C101.621 234.174 101.67 234.041 101.749 233.933C101.827 233.826 101.93 233.737 102.057 233.668L103.63 232.717C104.079 233.216 104.442 233.757 104.719 234.34C104.986 234.922 105.186 235.522 105.319 236.14C105.443 236.746 105.507 237.36 105.511 237.982C105.516 238.594 105.481 239.185 105.407 239.754C105.258 240.882 104.936 241.906 104.44 242.827C103.933 243.747 103.269 244.518 102.447 245.139C101.615 245.758 100.635 246.203 99.5055 246.473C98.3659 246.741 97.0846 246.782 95.6617 246.595C94.555 246.449 93.5403 246.134 92.6178 245.648C91.6846 245.161 90.9034 244.538 90.2739 243.78C89.6353 243.01 89.1683 242.117 88.8727 241.103C88.5786 240.078 88.5112 238.959 88.6705 237.747ZM91.4793 238.036C91.3296 239.174 91.534 240.107 92.0925 240.834C92.6509 241.562 93.5086 242.093 94.6655 242.427L95.6298 235.091C95.1238 235.025 94.6405 235.031 94.1798 235.11C93.7086 235.187 93.2857 235.346 92.911 235.586C92.5363 235.827 92.2257 236.15 91.9792 236.557C91.7221 236.963 91.5555 237.456 91.4793 238.036Z" fill="white"/>
<path d="M95.9849 217.827C96.1271 217.968 96.2214 218.104 96.268 218.235C96.3041 218.363 96.3021 218.515 96.2619 218.691C96.2193 218.878 96.1213 219.068 95.968 219.262C95.8171 219.446 95.6475 219.663 95.4592 219.915C95.2606 220.164 95.0681 220.458 94.8816 220.797C94.6976 221.126 94.5499 221.534 94.4388 222.021C94.2661 222.777 94.2907 223.41 94.5126 223.918C94.7345 224.427 95.1046 224.741 95.6228 224.859C95.9648 224.937 96.2798 224.894 96.5679 224.731C96.848 224.555 97.1175 224.306 97.3765 223.983C97.6378 223.65 97.8943 223.267 98.1458 222.834C98.387 222.398 98.6461 221.956 98.9231 221.507C99.2002 221.057 99.5007 220.625 99.8248 220.208C100.139 219.789 100.503 219.436 100.917 219.149C101.324 218.849 101.78 218.642 102.285 218.529C102.793 218.405 103.369 218.416 104.011 218.563C104.778 218.738 105.456 219.04 106.045 219.469C106.624 219.895 107.09 220.432 107.444 221.08C107.787 221.725 108.003 222.478 108.09 223.338C108.169 224.184 108.092 225.121 107.858 226.147C107.732 226.696 107.557 227.223 107.333 227.728C107.122 228.225 106.872 228.697 106.585 229.144C106.3 229.58 105.991 229.979 105.658 230.339C105.327 230.689 104.986 230.987 104.635 231.234L103.376 230.014C103.226 229.86 103.122 229.695 103.064 229.518C103.007 229.341 103.005 229.134 103.059 228.895C103.114 228.657 103.232 228.449 103.414 228.273C103.599 228.086 103.8 227.87 104.02 227.626C104.239 227.382 104.459 227.088 104.679 226.746C104.901 226.393 105.078 225.927 105.211 225.346C105.315 224.89 105.352 224.49 105.321 224.145C105.283 223.787 105.2 223.485 105.071 223.237C104.944 222.979 104.778 222.778 104.571 222.632C104.356 222.474 104.124 222.367 103.876 222.31C103.502 222.225 103.171 222.269 102.88 222.443C102.592 222.606 102.318 222.854 102.056 223.187C101.797 223.509 101.546 223.894 101.302 224.34C101.051 224.773 100.785 225.219 100.506 225.679C100.229 226.128 99.9272 226.566 99.6007 226.994C99.2663 227.408 98.8855 227.763 98.4583 228.058C98.0335 228.342 97.5463 228.542 96.9968 228.656C96.4496 228.76 95.8236 228.732 95.1189 228.571C94.4659 228.422 93.8737 228.151 93.3421 227.757C92.8105 227.363 92.3838 226.867 92.062 226.27C91.7323 225.661 91.5231 224.953 91.4343 224.148C91.3375 223.33 91.4015 222.429 91.6262 221.444C91.877 220.345 92.2867 219.387 92.8552 218.568C93.4238 217.749 94.0721 217.106 94.8 216.64L95.9849 217.827Z" fill="white"/>
<path fill-rule="evenodd" clip-rule="evenodd" d="M394.371 143.523C399.012 149.26 403.197 155.286 406.909 161.537C408.044 163.448 409.136 165.382 410.184 167.335L424.301 160.931L413.483 187.705L387.885 177.465L401.274 171.471C400.376 169.813 399.444 168.171 398.478 166.544C395.005 160.696 391.09 155.058 386.748 149.691L394.371 143.523Z" fill="white"/>
<path fill-rule="evenodd" clip-rule="evenodd" d="M104.5 195.938C106.437 188.818 108.875 181.899 111.773 175.231C112.659 173.192 113.588 171.175 114.559 169.182L101.106 161.481L129.149 154.589L135.821 181.34L123.126 173.989C122.307 175.687 121.52 177.404 120.766 179.139C118.055 185.377 115.774 191.851 113.961 198.512L104.5 195.938Z" fill="white"/>
<path fill-rule="evenodd" clip-rule="evenodd" d="M331.877 395.891L337.871 409.28C339.528 408.382 341.171 407.45 342.797 406.484C348.646 403.011 354.284 399.096 359.651 394.754L365.818 402.377C360.082 407.018 354.055 411.203 347.804 414.915C345.893 416.05 343.96 417.142 342.006 418.19L348.41 432.307L321.636 421.489L331.877 395.891Z" fill="white"/>
</svg>
