<?xml version="1.0" encoding="UTF-8"?>
<svg id="Layer_1" data-name="Layer 1" xmlns="http://www.w3.org/2000/svg" viewBox="0 0 1080 1080">
  <defs>
    <style>
      .cls-1 {
        fill: none;
        stroke: #f4dc00;
        stroke-miterlimit: 10;
        stroke-width: 26px;
      }

      .cls-2 {
        font-size: 90.85px;
      }

      .cls-2, .cls-3 {
        fill: #fff;
        font-family: Lato-Bold, Lato;
        font-weight: 700;
      }

      .cls-3 {
        font-size: 82.78px;
      }
    </style>
  </defs>
  <text class="cls-3" transform="translate(284.98 198.28) rotate(-32.79)"><tspan x="0" y="0">L</tspan></text>
  <text class="cls-3" transform="translate(318.32 176.49) rotate(-26.98)"><tspan x="0" y="0">o</tspan></text>
  <text class="cls-3" transform="translate(358.96 155.83) rotate(-20.93)"><tspan x="0" y="0">a</tspan></text>
  <text class="cls-3" transform="translate(398.03 140.71) rotate(-14.89)"><tspan x="0" y="0">n</tspan></text>
  <text class="cls-3" transform="translate(442.62 129.4) rotate(-10.7)"><tspan x="0" y="0"> </tspan></text>
  <text class="cls-3" transform="translate(457.7 126.46) rotate(-8.15)"><tspan x="0" y="0">i</tspan></text>
  <text class="cls-3" transform="translate(478.72 122.91) rotate(-3.55)"><tspan x="0" y="0">n</tspan></text>
  <text class="cls-3" transform="translate(524.7 120.59) rotate(.62)"><tspan x="0" y="0"> </tspan></text>
  <text class="cls-3" transform="translate(539.67 120.12) rotate(4.86)"><tspan x="0" y="0">5</tspan></text>
  <text class="cls-3" transform="translate(586.4 124.64) rotate(9.09)"><tspan x="0" y="0"> </tspan></text>
  <text class="cls-3" transform="translate(601.13 125.58) rotate(14.79)"><tspan x="0" y="0">m</tspan></text>
  <text class="cls-3" transform="translate(666.7 144.12) rotate(20.94)"><tspan x="0" y="0">i</tspan></text>
  <text class="cls-3" transform="translate(686.83 151.24) rotate(25.6)"><tspan x="0" y="0">n</tspan></text>
  <text class="cls-3" transform="translate(727.95 170.84) rotate(31.91)"><tspan x="0" y="0">u</tspan></text>
  <text class="cls-3" transform="translate(766.64 195.27) rotate(37.19)"><tspan x="0" y="0">t</tspan></text>
  <text class="cls-3" transform="translate(791.39 213.65) rotate(42.24)"><tspan x="0" y="0">e</tspan></text>
  <text class="cls-3" transform="translate(823.11 242.62) rotate(47.51)"><tspan x="0" y="0">s</tspan></text>
  <text class="cls-2" transform="translate(846.76 268.82) rotate(51.05)"><tspan x="0" y="0"> </tspan></text>
  <text class="cls-2" transform="translate(857.42 282) rotate(53.38)"><tspan x="0" y="0"> </tspan></text>
  <text class="cls-2" transform="translate(867.54 295.6) rotate(55.72)"><tspan x="0" y="0"> </tspan></text>
  <text class="cls-2" transform="translate(877.11 309.61) rotate(58.07)"><tspan x="0" y="0"> </tspan></text>
  <text class="cls-2" transform="translate(886.09 323.99) rotate(60.42)"><tspan x="0" y="0"> </tspan></text>
  <text class="cls-2" transform="translate(894.46 338.72) rotate(62.77)"><tspan x="0" y="0"> </tspan></text>
  <text class="cls-2" transform="translate(902.22 353.78) rotate(65.12)"><tspan x="0" y="0"> </tspan></text>
  <text class="cls-2" transform="translate(909.37 369.17) rotate(67.47)"><tspan x="0" y="0"> </tspan></text>
  <text class="cls-2" transform="translate(915.89 384.84) rotate(69.82)"><tspan x="0" y="0"> </tspan></text>
  <text class="cls-2" transform="translate(921.74 400.73) rotate(72.16)"><tspan x="0" y="0"> </tspan></text>
  <text class="cls-2" transform="translate(926.94 416.87) rotate(74.5)"><tspan x="0" y="0"> </tspan></text>
  <text class="cls-2" transform="translate(931.49 433.21) rotate(76.83)"><tspan x="0" y="0"> </tspan></text>
  <text class="cls-2" transform="translate(935.36 449.73) rotate(79.17)"><tspan x="0" y="0"> </tspan></text>
  <text class="cls-2" transform="translate(938.56 466.39) rotate(81.49)"><tspan x="0" y="0"> </tspan></text>
  <text class="cls-2" transform="translate(941.08 483.14) rotate(83.82)"><tspan x="0" y="0"> </tspan></text>
  <text class="cls-3" transform="translate(943.65 499.37) rotate(88.56)"><tspan x="0" y="0">R</tspan></text>
  <text class="cls-3" transform="translate(944.78 552.02) rotate(95.08)"><tspan x="0" y="0">e</tspan></text>
  <text class="cls-3" transform="translate(941.13 594.67) rotate(101.12)"><tspan x="0" y="0">p</tspan></text>
  <text class="cls-3" transform="translate(932.37 639.16) rotate(107.12)"><tspan x="0" y="0">a</tspan></text>
  <text class="cls-3" transform="translate(920.6 677.92) rotate(112.77)"><tspan x="0" y="0">y</tspan></text>
  <text class="cls-3" transform="translate(903.49 717.51) rotate(116.8)"><tspan x="0" y="0"> </tspan></text>
  <text class="cls-3" transform="translate(897.28 731.15) rotate(121.02)"><tspan x="0" y="0">o</tspan></text>
  <text class="cls-3" transform="translate(873.87 770.24) rotate(127.32)"><tspan x="0" y="0">n</tspan></text>
  <text class="cls-3" transform="translate(845.55 806.52) rotate(131.49)"><tspan x="0" y="0"> </tspan></text>
  <text class="cls-3" transform="translate(835.64 817.86) rotate(134.07)"><tspan x="0" y="0">t</tspan></text>
  <text class="cls-3" transform="translate(813.68 840.14) rotate(138.21)"><tspan x="0" y="0">i</tspan></text>
  <text class="cls-3" transform="translate(798.88 855.17) rotate(144.32)"><tspan x="0" y="0">m</tspan></text>
  <text class="cls-3" transform="translate(743.36 894.15) rotate(151.95)"><tspan x="0" y="0">e</tspan></text>
  <text class="cls-3" transform="translate(704.98 914.07) rotate(155.99)"><tspan x="0" y="0"> </tspan></text>
  <text class="cls-3" transform="translate(690.88 920.37) rotate(158.13)"><tspan x="0" y="0"> </tspan></text>
  <text class="cls-3" transform="translate(676.55 926.13) rotate(160.26)"><tspan x="0" y="0"> </tspan></text>
  <text class="cls-3" transform="translate(662 931.36) rotate(162.4)"><tspan x="0" y="0"> </tspan></text>
  <text class="cls-3" transform="translate(647.27 936.04) rotate(164.53)"><tspan x="0" y="0"> </tspan></text>
  <text class="cls-3" transform="translate(632.4 940.17) rotate(166.66)"><tspan x="0" y="0"> </tspan></text>
  <text class="cls-3" transform="translate(617.37 943.74) rotate(168.78)"><tspan x="0" y="0"> </tspan></text>
  <text class="cls-3" transform="translate(602.21 946.76) rotate(170.9)"><tspan x="0" y="0"> </tspan></text>
  <text class="cls-3" transform="translate(586.95 949.21) rotate(173.02)"><tspan x="0" y="0"> </tspan></text>
  <text class="cls-3" transform="translate(571.61 951.1) rotate(175.14)"><tspan x="0" y="0"> </tspan></text>
  <text class="cls-3" transform="translate(556.21 952.42) rotate(177.25)"><tspan x="0" y="0"> </tspan></text>
  <text class="cls-3" transform="translate(540.77 953.17) rotate(179.37)"><tspan x="0" y="0"> </tspan></text>
  <text class="cls-3" transform="translate(525.32 953.35) rotate(-178.52)"><tspan x="0" y="0"> </tspan></text>
  <text class="cls-3" transform="translate(509.87 952.96) rotate(-176.41)"><tspan x="0" y="0"> </tspan></text>
  <text class="cls-3" transform="translate(494.44 952) rotate(-174.29)"><tspan x="0" y="0"> </tspan></text>
  <text class="cls-3" transform="translate(479.08 950.48) rotate(-172.18)"><tspan x="0" y="0"> </tspan></text>
  <text class="cls-3" transform="translate(463.77 948.39) rotate(-170.06)"><tspan x="0" y="0"> </tspan></text>
  <text class="cls-3" transform="translate(448.53 945.73) rotate(-167.93)"><tspan x="0" y="0"> </tspan></text>
  <text class="cls-3" transform="translate(433.84 943.43) rotate(-163.26)"><tspan x="0" y="0">R</tspan></text>
  <text class="cls-3" transform="translate(383.49 928.09) rotate(-156.68)"><tspan x="0" y="0">e</tspan></text>
  <text class="cls-3" transform="translate(344.02 910.65) rotate(-152.21)"><tspan x="0" y="0">l</tspan></text>
  <text class="cls-3" transform="translate(324.9 901.2) rotate(-147.55)"><tspan x="0" y="0">o</tspan></text>
  <text class="cls-3" transform="translate(286.43 876.7) rotate(-141.52)"><tspan x="0" y="0">a</tspan></text>
  <text class="cls-3" transform="translate(253.68 850.7) rotate(-135.93)"><tspan x="0" y="0">n</tspan></text>
  <text class="cls-3" transform="translate(221.01 818.15) rotate(-131.43)"><tspan x="0" y="0"> </tspan></text>
  <text class="cls-3" transform="translate(210.8 806.7) rotate(-128.89)"><tspan x="0" y="0">i</tspan></text>
  <text class="cls-3" transform="translate(196.98 790.44) rotate(-124.26)"><tspan x="0" y="0">n</tspan></text>
  <text class="cls-3" transform="translate(171.53 752.13) rotate(-120.04)"><tspan x="0" y="0"> </tspan></text>
  <text class="cls-3" transform="translate(163.49 739.51) rotate(-115.75)"><tspan x="0" y="0">5</tspan></text>
  <text class="cls-3" transform="translate(143.6 696.98) rotate(-111.46)"><tspan x="0" y="0"> </tspan></text>
  <text class="cls-3" transform="translate(136.92 683.83) rotate(-105.74)"><tspan x="0" y="0">m</tspan></text>
  <text class="cls-3" transform="translate(119.57 617.91) rotate(-99.61)"><tspan x="0" y="0">i</tspan></text>
  <text class="cls-3" transform="translate(115.48 596.97) rotate(-95.01)"><tspan x="0" y="0">n</tspan></text>
  <text class="cls-3" transform="translate(111.42 551.6) rotate(-88.78)"><tspan x="0" y="0">u</tspan></text>
  <text class="cls-3" transform="translate(112.67 505.83) rotate(-83.55)"><tspan x="0" y="0">t</tspan></text>
  <text class="cls-3" transform="translate(115.82 475.17) rotate(-78.49)"><tspan x="0" y="0">e</tspan></text>
  <text class="cls-3" transform="translate(124.51 433.11) rotate(-73.13)"><tspan x="0" y="0">s</tspan></text>
  <path class="cls-1" d="M951.1,379.84l17.08-5.14-15.39,27.04-25.65-14.49,21.08-6.23c-3.15-9.3-6.66-18.5-10.53-27.58-7.31-17.17-15.89-33.92-25.74-50.1"/>
  <path class="cls-1" d="M553.48,979.52l-.15,17.83-21.27-22.7,21.44-20.21-.29,21.98c9.82-.26,19.64-.89,29.46-1.89,18.56-1.9,37.1-5.13,55.47-9.75"/>
  <path class="cls-1" d="M198.03,245.68l-13.03-12.17,31.11-.31.39,29.46-15.99-15.08c-6.45,7.41-12.63,15.07-18.54,22.98-11.16,14.96-21.31,30.8-30.34,47.45"/>
</svg>