<?xml version="1.0" encoding="UTF-8"?>
<svg id="Layer_1" data-name="Layer 1" xmlns="http://www.w3.org/2000/svg" viewBox="0 0 1080 1080">
  <defs>
    <style>
      .cls-1 {
        fill: none;
        stroke: #f4dc00;
        stroke-miterlimit: 10;
        stroke-width: 26px;
      }

      .cls-2 {
        font-size: 90.85px;
      }

      .cls-2, .cls-3 {
        fill: #fff;
        font-family: Lato-Bold, Lato;
        font-weight: 700;
      }

      .cls-3 {
        font-size: 82.78px;
      }
    </style>
  </defs>
  <text class="cls-3" transform="translate(947.49 596.64) rotate(102.21)"><tspan x="0" y="0">L</tspan></text>
  <text class="cls-3" transform="translate(939.32 635.63) rotate(108.02)"><tspan x="0" y="0">o</tspan></text>
  <text class="cls-3" transform="translate(925.2 678.97) rotate(114.07)"><tspan x="0" y="0">a</tspan></text>
  <text class="cls-3" transform="translate(908.26 717.3) rotate(120.11)"><tspan x="0" y="0">n</tspan></text>
  <text class="cls-3" transform="translate(884.72 756.82) rotate(124.3)"><tspan x="0" y="0"> </tspan></text>
  <text class="cls-3" transform="translate(876.14 769.56) rotate(126.85)"><tspan x="0" y="0">i</tspan></text>
  <text class="cls-3" transform="translate(863.79 786.94) rotate(131.45)"><tspan x="0" y="0">n</tspan></text>
  <text class="cls-3" transform="translate(832.92 821.09) rotate(135.62)"><tspan x="0" y="0"> </tspan></text>
  <text class="cls-3" transform="translate(823.41 832.35) rotate(141.29)"><tspan x="0" y="0">m</tspan></text>
  <text class="cls-3" transform="translate(769.47 874.06) rotate(147.41)"><tspan x="0" y="0">i</tspan></text>
  <text class="cls-3" transform="translate(751.8 886.01) rotate(152.03)"><tspan x="0" y="0">n</tspan></text>
  <text class="cls-3" transform="translate(711.61 907.44) rotate(158.33)"><tspan x="0" y="0">u</tspan></text>
  <text class="cls-3" transform="translate(668.98 924.07) rotate(163.63)"><tspan x="0" y="0">t</tspan></text>
  <text class="cls-3" transform="translate(639.51 933.07) rotate(168.74)"><tspan x="0" y="0">e</tspan></text>
  <text class="cls-3" transform="translate(597.38 941.33) rotate(174.1)"><tspan x="0" y="0">s</tspan></text>
  <text class="cls-2" transform="translate(562.25 944.7) rotate(177.64)"><tspan x="0" y="0"> </tspan></text>
  <text class="cls-2" transform="translate(545.5 945.28) rotate(179.07)"><tspan x="0" y="0"> </tspan></text>
  <text class="cls-2" transform="translate(528.31 945.44) rotate(-177.77)"><tspan x="0" y="0"> </tspan></text>
  <text class="cls-2" transform="translate(511.36 944.79) rotate(-175.46)"><tspan x="0" y="0"> </tspan></text>
  <text class="cls-2" transform="translate(494.47 943.46) rotate(-173.13)"><tspan x="0" y="0"> </tspan></text>
  <text class="cls-2" transform="translate(477.6 941.44) rotate(-170.79)"><tspan x="0" y="0"> </tspan></text>
  <text class="cls-2" transform="translate(460.87 938.74) rotate(-168.45)"><tspan x="0" y="0"> </tspan></text>
  <text class="cls-2" transform="translate(444.27 935.36) rotate(-166.11)"><tspan x="0" y="0"> </tspan></text>
  <text class="cls-2" transform="translate(427.81 931.3) rotate(-163.76)"><tspan x="0" y="0"> </tspan></text>
  <text class="cls-2" transform="translate(411.52 926.57) rotate(-161.4)"><tspan x="0" y="0"> </tspan></text>
  <text class="cls-2" transform="translate(395.44 921.17) rotate(-159.05)"><tspan x="0" y="0"> </tspan></text>
  <text class="cls-2" transform="translate(379.62 915.13) rotate(-156.71)"><tspan x="0" y="0"> </tspan></text>
  <text class="cls-2" transform="translate(364.04 908.43) rotate(-154.36)"><tspan x="0" y="0"> </tspan></text>
  <text class="cls-2" transform="translate(348.76 901.11) rotate(-152.02)"><tspan x="0" y="0"> </tspan></text>
  <text class="cls-2" transform="translate(333.75 893.15) rotate(-149.68)"><tspan x="0" y="0"> </tspan></text>
  <text class="cls-2" transform="translate(319.12 884.6) rotate(-147.35)"><tspan x="0" y="0"> </tspan></text>
  <text class="cls-2" transform="translate(304.83 875.46) rotate(-145.02)"><tspan x="0" y="0"> </tspan></text>
  <text class="cls-3" transform="translate(290.92 866.71) rotate(-140.26)"><tspan x="0" y="0">R</tspan></text>
  <text class="cls-3" transform="translate(250.56 832.91) rotate(-133.75)"><tspan x="0" y="0">e</tspan></text>
  <text class="cls-3" transform="translate(220.86 802.09) rotate(-127.72)"><tspan x="0" y="0">p</tspan></text>
  <text class="cls-3" transform="translate(193.12 766.2) rotate(-121.73)"><tspan x="0" y="0">a</tspan></text>
  <text class="cls-3" transform="translate(171.69 731.85) rotate(-116.1)"><tspan x="0" y="0">y</tspan></text>
  <text class="cls-3" transform="translate(153.11 692.88) rotate(-112.08)"><tspan x="0" y="0"> </tspan></text>
  <text class="cls-3" transform="translate(146.93 679.26) rotate(-107.85)"><tspan x="0" y="0">o</tspan></text>
  <text class="cls-3" transform="translate(132.88 635.92) rotate(-101.55)"><tspan x="0" y="0">n</tspan></text>
  <text class="cls-3" transform="translate(124.2 590.74) rotate(-97.34)"><tspan x="0" y="0"> </tspan></text>
  <text class="cls-3" transform="translate(122.01 575.68) rotate(-94.16)"><tspan x="0" y="0">t</tspan></text>
  <text class="cls-3" transform="translate(119.95 544.69) rotate(-90.93)"><tspan x="0" y="0">i</tspan></text>
  <text class="cls-3" transform="translate(118.33 523.56) rotate(-84.52)"><tspan x="0" y="0">m</tspan></text>
  <text class="cls-3" transform="translate(125.52 456.1) rotate(-76.93)"><tspan x="0" y="0">e</tspan></text>
  <text class="cls-3" transform="translate(135.75 414.08) rotate(-72.89)"><tspan x="0" y="0"> </tspan></text>
  <text class="cls-3" transform="translate(140.29 399.31) rotate(-70.75)"><tspan x="0" y="0"> </tspan></text>
  <text class="cls-3" transform="translate(145.37 384.73) rotate(-68.61)"><tspan x="0" y="0"> </tspan></text>
  <text class="cls-3" transform="translate(151 370.33) rotate(-66.46)"><tspan x="0" y="0"> </tspan></text>
  <text class="cls-3" transform="translate(157.15 356.18) rotate(-64.33)"><tspan x="0" y="0"> </tspan></text>
  <text class="cls-3" transform="translate(163.84 342.25) rotate(-62.2)"><tspan x="0" y="0"> </tspan></text>
  <text class="cls-3" transform="translate(171.03 328.59) rotate(-60.07)"><tspan x="0" y="0"> </tspan></text>
  <text class="cls-3" transform="translate(178.74 315.18) rotate(-57.94)"><tspan x="0" y="0"> </tspan></text>
  <text class="cls-3" transform="translate(186.92 302.1) rotate(-55.82)"><tspan x="0" y="0"> </tspan></text>
  <text class="cls-3" transform="translate(195.6 289.3) rotate(-53.7)"><tspan x="0" y="0"> </tspan></text>
  <text class="cls-3" transform="translate(204.76 276.82) rotate(-51.58)"><tspan x="0" y="0"> </tspan></text>
  <text class="cls-3" transform="translate(214.34 264.73) rotate(-49.46)"><tspan x="0" y="0"> </tspan></text>
  <text class="cls-3" transform="translate(224.38 252.98) rotate(-47.35)"><tspan x="0" y="0"> </tspan></text>
  <text class="cls-3" transform="translate(234.84 241.6) rotate(-45.23)"><tspan x="0" y="0"> </tspan></text>
  <text class="cls-3" transform="translate(245.72 230.63) rotate(-43.12)"><tspan x="0" y="0"> </tspan></text>
  <text class="cls-3" transform="translate(256.99 220.05) rotate(-41.01)"><tspan x="0" y="0"> </tspan></text>
  <text class="cls-3" transform="translate(268.66 209.9) rotate(-38.89)"><tspan x="0" y="0"> </tspan></text>
  <text class="cls-3" transform="translate(280.67 200.2) rotate(-36.77)"><tspan x="0" y="0"> </tspan></text>
  <text class="cls-3" transform="translate(292.08 190.64) rotate(-32.11)"><tspan x="0" y="0">R</tspan></text>
  <text class="cls-3" transform="translate(336.78 162.81) rotate(-25.55)"><tspan x="0" y="0">e</tspan></text>
  <text class="cls-3" transform="translate(375.86 144.55) rotate(-21.09)"><tspan x="0" y="0">l</tspan></text>
  <text class="cls-3" transform="translate(395.55 136.37) rotate(-16.43)"><tspan x="0" y="0">o</tspan></text>
  <text class="cls-3" transform="translate(439.29 123.5) rotate(-10.37)"><tspan x="0" y="0">a</tspan></text>
  <text class="cls-3" transform="translate(480.48 115.79) rotate(-4.36)"><tspan x="0" y="0">n</tspan></text>
  <text class="cls-3" transform="translate(526.26 112.91) rotate(-.93)"><tspan x="0" y="0"> </tspan></text>
  <text class="cls-3" transform="translate(541.78 112.67) rotate(2.29)"><tspan x="0" y="0">i</tspan></text>
  <text class="cls-3" transform="translate(563.12 112.98) rotate(6.88)"><tspan x="0" y="0">n</tspan></text>
  <text class="cls-3" transform="translate(608.74 119.02) rotate(11.09)"><tspan x="0" y="0"> </tspan></text>
  <text class="cls-3" transform="translate(623.52 121.27) rotate(15.37)"><tspan x="0" y="0">5</tspan></text>
  <text class="cls-3" transform="translate(668.65 134.26) rotate(19.66)"><tspan x="0" y="0"> </tspan></text>
  <text class="cls-3" transform="translate(682.93 137.86) rotate(25.4)"><tspan x="0" y="0">m</tspan></text>
  <text class="cls-3" transform="translate(743.98 168.16) rotate(31.54)"><tspan x="0" y="0">i</tspan></text>
  <text class="cls-3" transform="translate(762.44 178.86) rotate(36.16)"><tspan x="0" y="0">n</tspan></text>
  <text class="cls-3" transform="translate(799.27 205.67) rotate(42.39)"><tspan x="0" y="0">u</tspan></text>
  <text class="cls-3" transform="translate(832.91 236.76) rotate(47.63)"><tspan x="0" y="0">t</tspan></text>
  <text class="cls-3" transform="translate(853.9 259.3) rotate(52.67)"><tspan x="0" y="0">e</tspan></text>
  <text class="cls-3" transform="translate(879.85 293.54) rotate(58.01)"><tspan x="0" y="0">s</tspan></text>
  <path class="cls-1" d="M380.06,946.13l-7.35,16.25-10.27-29.36,27.78-9.82-9.15,19.98c9.08,3.73,18.32,7.13,27.71,10.19,17.74,5.77,36.01,10.31,54.68,13.52"/>
  <path class="cls-1" d="M189.35,252.34l-13.34-11.83,31.09-1.11,1.15,29.44-16.38-14.66c-6.25,7.57-12.24,15.39-17.94,23.45-10.77,15.24-20.51,31.34-29.11,48.22"/>
  <path class="cls-1" d="M976.07,466.67l17.74-1.83-20.21,23.65-22.46-19.07,21.87-2.15c-1.34-9.73-3.06-19.42-5.14-29.07-3.94-18.24-9.21-36.31-15.83-54.05"/>
</svg>