<?xml version="1.0" encoding="UTF-8"?>
<svg id="Layer_1" data-name="Layer 1" xmlns="http://www.w3.org/2000/svg" viewBox="0 0 1080 1080">
  <defs>
    <style>
      .cls-1 {
        fill: none;
        stroke: #f4dc00;
        stroke-miterlimit: 10;
        stroke-width: 26px;
      }

      .cls-2 {
        font-size: 90.85px;
      }

      .cls-2, .cls-3 {
        fill: #fff;
        font-family: Lato-Bold, Lato;
        font-weight: 700;
      }

      .cls-3 {
        font-size: 82.78px;
      }
    </style>
  </defs>
  <text class="cls-3" transform="translate(596.64 149.91) rotate(12.21)"><tspan x="0" y="0">L</tspan></text>
  <text class="cls-3" transform="translate(635.63 158.08) rotate(18.02)"><tspan x="0" y="0">o</tspan></text>
  <text class="cls-3" transform="translate(678.97 172.2) rotate(24.07)"><tspan x="0" y="0">a</tspan></text>
  <text class="cls-3" transform="translate(717.3 189.14) rotate(30.11)"><tspan x="0" y="0">n</tspan></text>
  <text class="cls-3" transform="translate(756.82 212.68) rotate(34.3)"><tspan x="0" y="0"> </tspan></text>
  <text class="cls-3" transform="translate(769.56 221.26) rotate(36.85)"><tspan x="0" y="0">i</tspan></text>
  <text class="cls-3" transform="translate(786.94 233.61) rotate(41.45)"><tspan x="0" y="0">n</tspan></text>
  <text class="cls-3" transform="translate(821.09 264.48) rotate(45.62)"><tspan x="0" y="0"> </tspan></text>
  <text class="cls-3" transform="translate(832.35 273.99) rotate(51.29)"><tspan x="0" y="0">m</tspan></text>
  <text class="cls-3" transform="translate(874.06 327.93) rotate(57.41)"><tspan x="0" y="0">i</tspan></text>
  <text class="cls-3" transform="translate(886 345.6) rotate(62.03)"><tspan x="0" y="0">n</tspan></text>
  <text class="cls-3" transform="translate(907.44 385.79) rotate(68.33)"><tspan x="0" y="0">u</tspan></text>
  <text class="cls-3" transform="translate(924.07 428.42) rotate(73.63)"><tspan x="0" y="0">t</tspan></text>
  <text class="cls-3" transform="translate(933.07 457.89) rotate(78.74)"><tspan x="0" y="0">e</tspan></text>
  <text class="cls-3" transform="translate(941.33 500.02) rotate(84.1)"><tspan x="0" y="0">s</tspan></text>
  <text class="cls-2" transform="translate(944.7 535.15) rotate(87.64)"><tspan x="0" y="0"> </tspan></text>
  <text class="cls-2" transform="translate(945.27 551.9) rotate(89.07)"><tspan x="0" y="0"> </tspan></text>
  <text class="cls-2" transform="translate(945.44 569.09) rotate(92.23)"><tspan x="0" y="0"> </tspan></text>
  <text class="cls-2" transform="translate(944.79 586.04) rotate(94.54)"><tspan x="0" y="0"> </tspan></text>
  <text class="cls-2" transform="translate(943.46 602.93) rotate(96.87)"><tspan x="0" y="0"> </tspan></text>
  <text class="cls-2" transform="translate(941.44 619.8) rotate(99.21)"><tspan x="0" y="0"> </tspan></text>
  <text class="cls-2" transform="translate(938.74 636.51) rotate(101.55)"><tspan x="0" y="0"> </tspan></text>
  <text class="cls-2" transform="translate(935.36 653.13) rotate(103.89)"><tspan x="0" y="0"> </tspan></text>
  <text class="cls-2" transform="translate(931.3 669.59) rotate(106.24)"><tspan x="0" y="0"> </tspan></text>
  <text class="cls-2" transform="translate(926.57 685.88) rotate(108.6)"><tspan x="0" y="0"> </tspan></text>
  <text class="cls-2" transform="translate(921.17 701.96) rotate(110.95)"><tspan x="0" y="0"> </tspan></text>
  <text class="cls-2" transform="translate(915.13 717.78) rotate(113.29)"><tspan x="0" y="0"> </tspan></text>
  <text class="cls-2" transform="translate(908.43 733.36) rotate(115.64)"><tspan x="0" y="0"> </tspan></text>
  <text class="cls-2" transform="translate(901.11 748.64) rotate(117.98)"><tspan x="0" y="0"> </tspan></text>
  <text class="cls-2" transform="translate(893.15 763.65) rotate(120.32)"><tspan x="0" y="0"> </tspan></text>
  <text class="cls-2" transform="translate(884.6 778.28) rotate(122.65)"><tspan x="0" y="0"> </tspan></text>
  <text class="cls-2" transform="translate(875.46 792.57) rotate(124.98)"><tspan x="0" y="0"> </tspan></text>
  <text class="cls-2" transform="translate(865.75 806.47) rotate(127.31)"><tspan x="0" y="0"> </tspan></text>
  <text class="cls-3" transform="translate(856.45 820.01) rotate(132.06)"><tspan x="0" y="0">R</tspan></text>
  <text class="cls-3" transform="translate(821.04 858.96) rotate(138.57)"><tspan x="0" y="0">e</tspan></text>
  <text class="cls-3" transform="translate(789.04 887.4) rotate(144.61)"><tspan x="0" y="0">p</tspan></text>
  <text class="cls-3" transform="translate(752.06 913.65) rotate(150.6)"><tspan x="0" y="0">a</tspan></text>
  <text class="cls-3" transform="translate(716.85 933.68) rotate(156.25)"><tspan x="0" y="0">y</tspan></text>
  <text class="cls-3" transform="translate(677.18 950.64) rotate(160.27)"><tspan x="0" y="0"> </tspan></text>
  <text class="cls-3" transform="translate(663.29 956.27) rotate(164.5)"><tspan x="0" y="0">o</tspan></text>
  <text class="cls-3" transform="translate(619.42 968.52) rotate(170.8)"><tspan x="0" y="0">n</tspan></text>
  <text class="cls-3" transform="translate(573.91 975.35) rotate(174.99)"><tspan x="0" y="0"> </tspan></text>
  <text class="cls-3" transform="translate(558.78 976.92) rotate(178.15)"><tspan x="0" y="0">t</tspan></text>
  <text class="cls-3" transform="translate(527.64 977.8) rotate(-178.29)"><tspan x="0" y="0">i</tspan></text>
  <text class="cls-3" transform="translate(506.58 978.51) rotate(-172.2)"><tspan x="0" y="0">m</tspan></text>
  <text class="cls-3" transform="translate(439.11 967.99) rotate(-166.47)"><tspan x="0" y="0"> </tspan></text>
  <text class="cls-3" transform="translate(424.09 964.38) rotate(-164.33)"><tspan x="0" y="0"> </tspan></text>
  <text class="cls-3" transform="translate(409.22 960.22) rotate(-162.19)"><tspan x="0" y="0"> </tspan></text>
  <text class="cls-3" transform="translate(394.51 955.5) rotate(-160.04)"><tspan x="0" y="0"> </tspan></text>
  <text class="cls-3" transform="translate(379.98 950.24) rotate(-157.9)"><tspan x="0" y="0"> </tspan></text>
  <text class="cls-3" transform="translate(365.66 944.44) rotate(-155.76)"><tspan x="0" y="0"> </tspan></text>
  <text class="cls-3" transform="translate(351.58 938.11) rotate(-153.63)"><tspan x="0" y="0"> </tspan></text>
  <text class="cls-3" transform="translate(337.74 931.26) rotate(-151.5)"><tspan x="0" y="0"> </tspan></text>
  <text class="cls-3" transform="translate(324.15 923.89) rotate(-149.37)"><tspan x="0" y="0"> </tspan></text>
  <text class="cls-3" transform="translate(310.86 916.03) rotate(-147.24)"><tspan x="0" y="0"> </tspan></text>
  <text class="cls-3" transform="translate(297.85 907.67) rotate(-145.12)"><tspan x="0" y="0"> </tspan></text>
  <text class="cls-3" transform="translate(285.17 898.84) rotate(-143)"><tspan x="0" y="0"> </tspan></text>
  <text class="cls-3" transform="translate(272.83 889.56) rotate(-140.89)"><tspan x="0" y="0"> </tspan></text>
  <text class="cls-3" transform="translate(260.83 879.81) rotate(-138.77)"><tspan x="0" y="0"> </tspan></text>
  <text class="cls-3" transform="translate(249.2 869.63) rotate(-136.65)"><tspan x="0" y="0"> </tspan></text>
  <text class="cls-3" transform="translate(237.96 859.03) rotate(-134.54)"><tspan x="0" y="0"> </tspan></text>
  <text class="cls-3" transform="translate(227.11 848.02) rotate(-132.43)"><tspan x="0" y="0"> </tspan></text>
  <text class="cls-3" transform="translate(216.67 836.62) rotate(-130.31)"><tspan x="0" y="0"> </tspan></text>
  <text class="cls-3" transform="translate(206.41 825.8) rotate(-125.66)"><tspan x="0" y="0">R</tspan></text>
  <text class="cls-3" transform="translate(175.89 782.93) rotate(-119.11)"><tspan x="0" y="0">e</tspan></text>
  <text class="cls-3" transform="translate(155.23 745.06) rotate(-114.66)"><tspan x="0" y="0">l</tspan></text>
  <text class="cls-3" transform="translate(145.84 725.9) rotate(-110.01)"><tspan x="0" y="0">o</tspan></text>
  <text class="cls-3" transform="translate(130.26 683.06) rotate(-103.95)"><tspan x="0" y="0">a</tspan></text>
  <text class="cls-3" transform="translate(119.99 642.44) rotate(-97.91)"><tspan x="0" y="0">n</tspan></text>
  <text class="cls-3" transform="translate(114.19 596.79) rotate(-93.73)"><tspan x="0" y="0"> </tspan></text>
  <text class="cls-3" transform="translate(113.11 581.46) rotate(-91.2)"><tspan x="0" y="0">i</tspan></text>
  <text class="cls-3" transform="translate(112.12 560.15) rotate(-86.65)"><tspan x="0" y="0">n</tspan></text>
  <text class="cls-3" transform="translate(115.34 514.24) rotate(-82.48)"><tspan x="0" y="0"> </tspan></text>
  <text class="cls-3" transform="translate(116.67 499.31) rotate(-78.21)"><tspan x="0" y="0">5</tspan></text>
  <text class="cls-3" transform="translate(126.81 453.48) rotate(-73.92)"><tspan x="0" y="0"> </tspan></text>
  <text class="cls-3" transform="translate(129.51 439.01) rotate(-68.18)"><tspan x="0" y="0">m</tspan></text>
  <text class="cls-3" transform="translate(155.95 376.18) rotate(-62.02)"><tspan x="0" y="0">i</tspan></text>
  <text class="cls-3" transform="translate(165.47 357.1) rotate(-57.39)"><tspan x="0" y="0">n</tspan></text>
  <text class="cls-3" transform="translate(189.96 318.68) rotate(-51.14)"><tspan x="0" y="0">u</tspan></text>
  <text class="cls-3" transform="translate(218.9 283.2) rotate(-45.91)"><tspan x="0" y="0">t</tspan></text>
  <text class="cls-3" transform="translate(240.12 260.84) rotate(-40.86)"><tspan x="0" y="0">e</tspan></text>
  <text class="cls-3" transform="translate(272.68 232.84) rotate(-35.54)"><tspan x="0" y="0">s</tspan></text>
  <path class="cls-1" d="M944.27,722.27l16.05,7.78-29.62,9.49-9.08-28.03,19.73,9.68c3.97-8.98,7.61-18.13,10.92-27.43,6.24-17.59,11.26-35.72,14.96-54.3"/>
  <path class="cls-1" d="M274.2,929.62l-10.88,14.13-3.27-30.94,29.29-3.19-13.49,17.35c7.98,5.71,16.2,11.14,24.64,16.27,15.95,9.69,32.69,18.29,50.13,25.69"/>
  <path class="cls-1" d="M462.85,119.97l-2.69-17.63,24.61,19.03-17.95,23.37-3.21-21.74c-9.65,1.82-19.25,4-28.79,6.55-18.03,4.83-35.81,10.97-53.22,18.45"/>
</svg>